M48
; DRILL file {KiCad 9.0.2} date 2026-08-21T13:17:05+0200
; FORMAT={-:-/ absolute / inch / decimal}
; #@! TF.CreationDate,2026-08-21T13:17:05+02:00
; #@! TF.GenerationSoftware,Kicad,Pcbnew,9.0.2
; #@! TF.FileFunction,Plated,1,2,PTH
FMAT,2
INCH
; #@! TA.AperFunction,Plated,PTH,ViaDrill
T1C0.0118
; #@! TA.AperFunction,Plated,PTH,ComponentDrill
T2C0.0236
; #@! TA.AperFunction,Plated,PTH,ComponentDrill
T3C0.0295
; #@! TA.AperFunction,Plated,PTH,ViaDrill
T4C0.0315
; #@! TA.AperFunction,Plated,PTH,ComponentDrill
T5C0.0335
; #@! TA.AperFunction,Plated,PTH,ComponentDrill
T6C0.0394
; #@! TA.AperFunction,Plated,PTH,ComponentDrill
T7C0.0669
%
G90
G05
T1
X4.199Y-3.102
X4.299Y-3.247
X4.36Y-3.19
X4.386Y-3.429
X4.426Y-3.564
X4.448Y-2.742
X4.485Y-3.097
X4.534Y-2.562
X4.579Y-3.242
X4.646Y-3.192
X4.765Y-3.097
X4.765Y-3.425
X4.801Y-3.564
X4.854Y-3.237
X4.919Y-3.192
X4.92Y-4.135
X5.0335Y-2.75
X5.0965Y-3.16
X5.0965Y-3.216
X5.1024Y-2.82
X5.106Y-3.386
X5.12Y-3.1884
X5.138Y-3.2448
X5.1455Y-3.2795
X5.178Y-3.71
X5.31Y-3.325
X5.325Y-2.975
X5.3509Y-3.9584
X5.3874Y-3.4599
X5.432Y-4.058
X5.432Y-4.124
X5.4475Y-4.2375
X5.49Y-2.7595
X5.4905Y-2.6205
X5.495Y-4.045
X5.524Y-3.508
X5.53Y-3.1484
X5.5397Y-2.5003
X5.54Y-3.225
X5.583Y-3.742
X5.604Y-2.69
X5.622Y-3.703
X5.664Y-2.69
X5.67Y-3.68
X5.724Y-2.69
X5.7872Y-3.1847
X5.7976Y-4.0659
X5.9443Y-3.1643
X5.945Y-3.3
X5.9824Y-3.165
X5.995Y-3.61
X6.0376Y-3.12
X6.07Y-4.03
X6.0932Y-3.1772
X6.1124Y-2.985
X6.1676Y-2.985
X6.185Y-3.405
X6.185Y-3.875
X6.25Y-3.09
X6.3098Y-4.3098
X6.315Y-4.155
X6.3376Y-4.0526
X6.3876Y-4.155
X6.3883Y-2.898
X6.46Y-3.32
X6.515Y-3.695
X6.515Y-3.98
X6.53Y-3.32
X6.6Y-3.295
X6.635Y-3.295
X6.635Y-3.44
T3
X4.225Y-2.6013
X4.225Y-2.68
X4.235Y-2.867
X4.3137Y-2.867
X4.519Y-2.866
X4.59Y-2.255
X4.5977Y-2.866
X4.6687Y-2.255
X4.7475Y-2.255
X4.805Y-2.867
X4.8262Y-2.255
X4.8837Y-2.867
X4.905Y-2.255
X4.9837Y-2.255
X5.392Y-3.645
X5.4707Y-3.645
X5.6488Y-2.295
X5.7275Y-2.295
X5.8063Y-2.295
X5.83Y-4.2675
X5.83Y-4.3463
X5.83Y-4.425
X5.885Y-2.295
X6.0913Y-2.295
X6.095Y-4.395
X6.17Y-2.295
X6.1737Y-4.395
X6.2525Y-4.395
X6.3312Y-4.395
X6.38Y-2.252
X6.4587Y-2.252
X6.635Y-3.61
X6.635Y-3.88
X6.7137Y-3.61
X6.7137Y-3.88
X6.76Y-2.595
X6.76Y-2.6737
X6.7925Y-3.61
X6.7925Y-3.88
X6.804Y-2.87
X6.804Y-2.9487
T4
X4.211Y-3.394
X4.586Y-3.394
X5.226Y-4.428
X6.06Y-2.695
T5
X5.2566Y-2.335
X5.4534Y-2.335
T6
X5.535Y-4.285
X5.535Y-4.385
T7
X4.2561Y-3.66
X4.2974Y-3.9353
X4.2974Y-4.0912
X4.412Y-3.66
X4.612Y-3.66
X4.7679Y-3.66
T2
G00X5.2172Y-2.2425
M15
G01X5.2172Y-2.2149
M16
G05
G00X5.4928Y-2.2149
M15
G01X5.4928Y-2.2425
M16
G05
M30
