%TF.GenerationSoftware,KiCad,Pcbnew,9.0.2*%
%TF.CreationDate,2026-08-21T13:17:05+02:00*%
%TF.ProjectId,ResistojetV1,52657369-7374-46f6-9a65-7456312e6b69,0.1*%
%TF.SameCoordinates,Original*%
%TF.FileFunction,Soldermask,Top*%
%TF.FilePolarity,Negative*%
%FSLAX46Y46*%
G04 Gerber Fmt 4.6, Leading zero omitted, Abs format (unit mm)*
G04 Created by KiCad (PCBNEW 9.0.2) date 2026-08-21 13:17:05*
%MOMM*%
%LPD*%
G01*
G04 APERTURE LIST*
G04 Aperture macros list*
%AMRoundRect*
0 Rectangle with rounded corners*
0 $1 Rounding radius*
0 $2 $3 $4 $5 $6 $7 $8 $9 X,Y pos of 4 corners*
0 Add a 4 corners polygon primitive as box body*
4,1,4,$2,$3,$4,$5,$6,$7,$8,$9,$2,$3,0*
0 Add four circle primitives for the rounded corners*
1,1,$1+$1,$2,$3*
1,1,$1+$1,$4,$5*
1,1,$1+$1,$6,$7*
1,1,$1+$1,$8,$9*
0 Add four rect primitives between the rounded corners*
20,1,$1+$1,$2,$3,$4,$5,0*
20,1,$1+$1,$4,$5,$6,$7,0*
20,1,$1+$1,$6,$7,$8,$9,0*
20,1,$1+$1,$8,$9,$2,$3,0*%
%AMHorizOval*
0 Thick line with rounded ends*
0 $1 width*
0 $2 $3 position (X,Y) of the first rounded end (center of the circle)*
0 $4 $5 position (X,Y) of the second rounded end (center of the circle)*
0 Add line between two ends*
20,1,$1,$2,$3,$4,$5,0*
0 Add two circle primitives to create the rounded ends*
1,1,$1,$2,$3*
1,1,$1,$4,$5*%
G04 Aperture macros list end*
%ADD10C,0.000000*%
%ADD11RoundRect,0.200000X0.200000X0.275000X-0.200000X0.275000X-0.200000X-0.275000X0.200000X-0.275000X0*%
%ADD12C,1.000000*%
%ADD13RoundRect,0.200000X-0.275000X0.200000X-0.275000X-0.200000X0.275000X-0.200000X0.275000X0.200000X0*%
%ADD14RoundRect,0.140000X0.140000X0.170000X-0.140000X0.170000X-0.140000X-0.170000X0.140000X-0.170000X0*%
%ADD15RoundRect,0.112500X-0.112500X0.187500X-0.112500X-0.187500X0.112500X-0.187500X0.112500X0.187500X0*%
%ADD16RoundRect,0.150000X0.150000X-0.587500X0.150000X0.587500X-0.150000X0.587500X-0.150000X-0.587500X0*%
%ADD17RoundRect,0.225000X0.225000X0.250000X-0.225000X0.250000X-0.225000X-0.250000X0.225000X-0.250000X0*%
%ADD18RoundRect,0.225000X0.250000X-0.225000X0.250000X0.225000X-0.250000X0.225000X-0.250000X-0.225000X0*%
%ADD19R,0.400000X1.350000*%
%ADD20O,1.200000X1.900000*%
%ADD21R,1.200000X1.900000*%
%ADD22C,1.450000*%
%ADD23R,1.500000X1.900000*%
%ADD24RoundRect,0.140000X-0.140000X-0.170000X0.140000X-0.170000X0.140000X0.170000X-0.140000X0.170000X0*%
%ADD25RoundRect,0.225000X-0.375000X0.225000X-0.375000X-0.225000X0.375000X-0.225000X0.375000X0.225000X0*%
%ADD26RoundRect,0.150000X0.587500X0.150000X-0.587500X0.150000X-0.587500X-0.150000X0.587500X-0.150000X0*%
%ADD27RoundRect,0.250000X-0.250000X-0.475000X0.250000X-0.475000X0.250000X0.475000X-0.250000X0.475000X0*%
%ADD28RoundRect,0.150000X-0.150000X0.587500X-0.150000X-0.587500X0.150000X-0.587500X0.150000X0.587500X0*%
%ADD29RoundRect,0.250000X-1.000000X-0.650000X1.000000X-0.650000X1.000000X0.650000X-1.000000X0.650000X0*%
%ADD30RoundRect,0.200000X-0.200000X-0.275000X0.200000X-0.275000X0.200000X0.275000X-0.200000X0.275000X0*%
%ADD31RoundRect,0.250001X1.099999X-1.099999X1.099999X1.099999X-1.099999X1.099999X-1.099999X-1.099999X0*%
%ADD32C,2.700000*%
%ADD33RoundRect,0.112500X0.187500X0.112500X-0.187500X0.112500X-0.187500X-0.112500X0.187500X-0.112500X0*%
%ADD34RoundRect,0.200000X0.275000X-0.200000X0.275000X0.200000X-0.275000X0.200000X-0.275000X-0.200000X0*%
%ADD35RoundRect,0.140000X0.219203X0.021213X0.021213X0.219203X-0.219203X-0.021213X-0.021213X-0.219203X0*%
%ADD36RoundRect,0.250000X0.475000X-0.250000X0.475000X0.250000X-0.475000X0.250000X-0.475000X-0.250000X0*%
%ADD37RoundRect,0.250000X-0.650000X1.000000X-0.650000X-1.000000X0.650000X-1.000000X0.650000X1.000000X0*%
%ADD38RoundRect,0.250000X-0.550000X1.500000X-0.550000X-1.500000X0.550000X-1.500000X0.550000X1.500000X0*%
%ADD39RoundRect,0.225000X-0.225000X-0.250000X0.225000X-0.250000X0.225000X0.250000X-0.225000X0.250000X0*%
%ADD40RoundRect,0.218750X0.218750X0.256250X-0.218750X0.256250X-0.218750X-0.256250X0.218750X-0.256250X0*%
%ADD41RoundRect,0.218750X-0.026517X0.335876X-0.335876X0.026517X0.026517X-0.335876X0.335876X-0.026517X0*%
%ADD42RoundRect,0.250000X-0.350000X-0.625000X0.350000X-0.625000X0.350000X0.625000X-0.350000X0.625000X0*%
%ADD43O,1.200000X1.750000*%
%ADD44RoundRect,0.375000X0.375000X-0.625000X0.375000X0.625000X-0.375000X0.625000X-0.375000X-0.625000X0*%
%ADD45RoundRect,0.500000X1.400000X-0.500000X1.400000X0.500000X-1.400000X0.500000X-1.400000X-0.500000X0*%
%ADD46R,1.700000X1.700000*%
%ADD47C,1.700000*%
%ADD48RoundRect,0.112500X0.112500X-0.187500X0.112500X0.187500X-0.112500X0.187500X-0.112500X-0.187500X0*%
%ADD49RoundRect,0.140000X-0.170000X0.140000X-0.170000X-0.140000X0.170000X-0.140000X0.170000X0.140000X0*%
%ADD50RoundRect,0.218750X-0.256250X0.218750X-0.256250X-0.218750X0.256250X-0.218750X0.256250X0.218750X0*%
%ADD51RoundRect,0.249999X-0.450001X-1.850001X0.450001X-1.850001X0.450001X1.850001X-0.450001X1.850001X0*%
%ADD52R,1.860000X1.230000*%
%ADD53RoundRect,0.218750X-0.218750X-0.256250X0.218750X-0.256250X0.218750X0.256250X-0.218750X0.256250X0*%
%ADD54RoundRect,0.140000X0.170000X-0.140000X0.170000X0.140000X-0.170000X0.140000X-0.170000X-0.140000X0*%
%ADD55RoundRect,0.250000X0.650000X-1.000000X0.650000X1.000000X-0.650000X1.000000X-0.650000X-1.000000X0*%
%ADD56RoundRect,0.225000X-0.017678X0.335876X-0.335876X0.017678X0.017678X-0.335876X0.335876X-0.017678X0*%
%ADD57O,0.588000X1.800000*%
%ADD58RoundRect,0.150000X-0.512500X-0.150000X0.512500X-0.150000X0.512500X0.150000X-0.512500X0.150000X0*%
%ADD59RoundRect,0.200000X-0.053033X0.335876X-0.335876X0.053033X0.053033X-0.335876X0.335876X-0.053033X0*%
%ADD60RoundRect,0.250000X0.350000X0.625000X-0.350000X0.625000X-0.350000X-0.625000X0.350000X-0.625000X0*%
%ADD61RoundRect,0.112500X-0.187500X-0.112500X0.187500X-0.112500X0.187500X0.112500X-0.187500X0.112500X0*%
%ADD62RoundRect,0.225000X0.335876X0.017678X0.017678X0.335876X-0.335876X-0.017678X-0.017678X-0.335876X0*%
%ADD63RoundRect,0.250000X0.250000X0.475000X-0.250000X0.475000X-0.250000X-0.475000X0.250000X-0.475000X0*%
%ADD64HorizOval,0.364000X0.487197X0.487197X-0.487197X-0.487197X0*%
%ADD65RoundRect,0.140000X-0.219203X-0.021213X-0.021213X-0.219203X0.219203X0.021213X0.021213X0.219203X0*%
%ADD66RoundRect,0.250000X0.850000X0.350000X-0.850000X0.350000X-0.850000X-0.350000X0.850000X-0.350000X0*%
%ADD67RoundRect,0.249997X2.950003X2.650003X-2.950003X2.650003X-2.950003X-2.650003X2.950003X-2.650003X0*%
%ADD68RoundRect,0.100500X-0.951500X-0.301500X0.951500X-0.301500X0.951500X0.301500X-0.951500X0.301500X0*%
%ADD69RoundRect,0.075000X0.075000X-0.662500X0.075000X0.662500X-0.075000X0.662500X-0.075000X-0.662500X0*%
%ADD70RoundRect,0.075000X0.662500X-0.075000X0.662500X0.075000X-0.662500X0.075000X-0.662500X-0.075000X0*%
%ADD71RoundRect,0.250001X-1.099999X-1.099999X1.099999X-1.099999X1.099999X1.099999X-1.099999X1.099999X0*%
%ADD72RoundRect,0.250000X-0.625000X0.350000X-0.625000X-0.350000X0.625000X-0.350000X0.625000X0.350000X0*%
%ADD73O,1.750000X1.200000*%
%ADD74RoundRect,0.250000X0.625000X-0.350000X0.625000X0.350000X-0.625000X0.350000X-0.625000X-0.350000X0*%
G04 APERTURE END LIST*
D10*
%TO.C,SU_LOGO*%
G36*
X121520581Y-98813781D02*
G01*
X121520581Y-98886400D01*
X121489474Y-98886400D01*
X121458367Y-98886400D01*
X121457314Y-99424817D01*
X121456261Y-99963234D01*
X121447426Y-99964494D01*
X121441990Y-99963567D01*
X121435480Y-99958585D01*
X121426825Y-99948498D01*
X121415742Y-99933372D01*
X121398033Y-99909205D01*
X121378207Y-99884033D01*
X121355556Y-99857047D01*
X121329369Y-99827438D01*
X121298935Y-99794397D01*
X121263544Y-99757113D01*
X121237039Y-99729700D01*
X121190068Y-99680935D01*
X121148790Y-99636999D01*
X121112681Y-99597224D01*
X121081214Y-99560944D01*
X121053865Y-99527491D01*
X121030107Y-99496198D01*
X121009416Y-99466399D01*
X120991265Y-99437425D01*
X120975130Y-99408611D01*
X120960486Y-99379288D01*
X120959710Y-99377641D01*
X120938972Y-99328971D01*
X120924117Y-99282895D01*
X120914564Y-99236798D01*
X120909736Y-99188062D01*
X120908869Y-99147828D01*
X120908931Y-99142306D01*
X121056944Y-99142306D01*
X121059608Y-99189533D01*
X121069540Y-99238986D01*
X121086566Y-99290132D01*
X121110513Y-99342434D01*
X121141205Y-99395359D01*
X121173978Y-99442453D01*
X121185997Y-99458133D01*
X121200384Y-99476408D01*
X121216281Y-99496242D01*
X121232828Y-99516597D01*
X121249166Y-99536434D01*
X121264437Y-99554717D01*
X121277780Y-99570406D01*
X121288336Y-99582464D01*
X121295247Y-99589853D01*
X121297537Y-99591708D01*
X121298009Y-99587680D01*
X121298459Y-99575956D01*
X121298881Y-99557141D01*
X121299272Y-99531839D01*
X121299625Y-99500654D01*
X121299934Y-99464190D01*
X121300195Y-99423051D01*
X121300402Y-99377841D01*
X121300549Y-99329165D01*
X121300632Y-99277626D01*
X121300649Y-99241195D01*
X121300649Y-98890550D01*
X121282738Y-98890550D01*
X121243594Y-98894063D01*
X121207581Y-98904813D01*
X121173980Y-98923119D01*
X121142073Y-98949300D01*
X121135635Y-98955709D01*
X121106312Y-98991614D01*
X121083106Y-99032475D01*
X121066703Y-99076973D01*
X121061722Y-99097840D01*
X121056944Y-99142306D01*
X120908931Y-99142306D01*
X120909161Y-99121889D01*
X120909861Y-99102145D01*
X120911209Y-99086494D01*
X120913442Y-99072834D01*
X120916800Y-99059062D01*
X120920308Y-99047040D01*
X120939835Y-98995391D01*
X120965875Y-98946386D01*
X120997603Y-98900974D01*
X121034195Y-98860101D01*
X121074825Y-98824716D01*
X121118668Y-98795767D01*
X121153981Y-98778508D01*
X121181107Y-98768237D01*
X121209073Y-98759873D01*
X121239004Y-98753265D01*
X121272030Y-98748261D01*
X121309276Y-98744710D01*
X121351870Y-98742462D01*
X121400940Y-98741366D01*
X121432401Y-98741198D01*
X121520581Y-98741162D01*
X121520581Y-98813781D01*
G37*
G36*
X120516888Y-98741056D02*
G01*
X120568246Y-98741150D01*
X120613436Y-98741337D01*
X120652812Y-98741640D01*
X120686730Y-98742083D01*
X120715544Y-98742690D01*
X120739611Y-98743483D01*
X120759284Y-98744487D01*
X120774919Y-98745724D01*
X120786872Y-98747218D01*
X120795496Y-98748992D01*
X120801148Y-98751071D01*
X120804183Y-98753477D01*
X120804955Y-98756233D01*
X120803819Y-98759364D01*
X120801132Y-98762893D01*
X120797247Y-98766842D01*
X120792520Y-98771236D01*
X120787306Y-98776099D01*
X120781961Y-98781452D01*
X120781019Y-98782462D01*
X120740962Y-98831435D01*
X120707465Y-98884377D01*
X120680359Y-98941704D01*
X120659473Y-99003833D01*
X120644635Y-99071182D01*
X120636383Y-99135806D01*
X120633764Y-99207057D01*
X120638839Y-99276655D01*
X120651709Y-99344922D01*
X120672472Y-99412180D01*
X120701230Y-99478751D01*
X120738082Y-99544957D01*
X120783126Y-99611119D01*
X120783910Y-99612173D01*
X120797183Y-99629755D01*
X120810541Y-99646854D01*
X120824661Y-99664243D01*
X120840219Y-99682694D01*
X120857893Y-99702981D01*
X120878357Y-99725874D01*
X120902290Y-99752147D01*
X120930367Y-99782573D01*
X120963265Y-99817922D01*
X120976903Y-99832520D01*
X121015795Y-99874250D01*
X121049536Y-99910787D01*
X121078759Y-99942886D01*
X121104101Y-99971302D01*
X121126196Y-99996791D01*
X121145681Y-100020107D01*
X121163191Y-100042005D01*
X121179360Y-100063240D01*
X121194825Y-100084569D01*
X121210221Y-100106744D01*
X121220590Y-100122118D01*
X121263777Y-100193354D01*
X121298786Y-100265652D01*
X121325698Y-100339274D01*
X121344595Y-100414481D01*
X121355558Y-100491532D01*
X121358710Y-100561984D01*
X121354811Y-100642471D01*
X121343040Y-100720417D01*
X121323466Y-100795698D01*
X121296158Y-100868187D01*
X121261186Y-100937756D01*
X121218619Y-101004281D01*
X121168525Y-101067633D01*
X121110973Y-101127688D01*
X121046034Y-101184317D01*
X120999800Y-101219297D01*
X120937547Y-101260731D01*
X120870359Y-101299715D01*
X120800127Y-101335356D01*
X120728742Y-101366758D01*
X120658098Y-101393027D01*
X120590085Y-101413268D01*
X120588984Y-101413549D01*
X120563622Y-101419869D01*
X120544191Y-101424107D01*
X120528618Y-101426364D01*
X120514826Y-101426741D01*
X120500741Y-101425337D01*
X120484287Y-101422254D01*
X120470807Y-101419278D01*
X120443273Y-101412705D01*
X120414999Y-101405354D01*
X120387962Y-101397787D01*
X120364137Y-101390567D01*
X120345501Y-101384257D01*
X120338973Y-101381715D01*
X120329499Y-101376592D01*
X120326138Y-101370474D01*
X120326259Y-101364854D01*
X120327464Y-101359703D01*
X120330655Y-101355692D01*
X120337313Y-101352027D01*
X120348920Y-101347909D01*
X120366957Y-101342543D01*
X120368678Y-101342048D01*
X120422763Y-101322307D01*
X120474744Y-101295032D01*
X120524106Y-101260835D01*
X120570335Y-101220330D01*
X120612917Y-101174127D01*
X120651337Y-101122839D01*
X120685080Y-101067079D01*
X120713632Y-101007458D01*
X120736478Y-100944588D01*
X120751567Y-100886531D01*
X120755614Y-100860188D01*
X120758124Y-100828188D01*
X120759099Y-100793030D01*
X120758540Y-100757212D01*
X120756449Y-100723233D01*
X120752827Y-100693592D01*
X120751447Y-100685940D01*
X120736855Y-100628066D01*
X120715755Y-100569566D01*
X120687903Y-100509972D01*
X120653052Y-100448813D01*
X120610959Y-100385619D01*
X120561379Y-100319921D01*
X120559453Y-100317505D01*
X120545112Y-100299860D01*
X120526418Y-100277328D01*
X120504504Y-100251251D01*
X120480502Y-100222967D01*
X120455547Y-100193818D01*
X120430773Y-100165142D01*
X120422998Y-100156205D01*
X120368434Y-100092840D01*
X120319572Y-100034416D01*
X120275975Y-99980287D01*
X120237207Y-99929809D01*
X120202832Y-99882338D01*
X120172412Y-99837228D01*
X120145512Y-99793834D01*
X120121694Y-99751513D01*
X120100522Y-99709618D01*
X120081560Y-99667507D01*
X120066137Y-99629187D01*
X120042623Y-99558690D01*
X120024654Y-99485587D01*
X120012254Y-99410980D01*
X120005449Y-99335968D01*
X120004270Y-99261943D01*
X120178364Y-99261943D01*
X120178448Y-99295587D01*
X120178800Y-99322525D01*
X120179519Y-99344349D01*
X120180702Y-99362650D01*
X120182449Y-99379021D01*
X120184856Y-99395051D01*
X120187429Y-99409256D01*
X120204329Y-99481562D01*
X120227272Y-99552382D01*
X120256628Y-99622505D01*
X120292767Y-99692721D01*
X120336060Y-99763821D01*
X120386878Y-99836593D01*
X120389607Y-99840268D01*
X120410819Y-99868016D01*
X120436103Y-99899717D01*
X120465808Y-99935793D01*
X120500284Y-99976662D01*
X120539881Y-100022745D01*
X120576359Y-100064653D01*
X120621909Y-100117100D01*
X120662169Y-100164318D01*
X120697651Y-100207008D01*
X120728870Y-100245869D01*
X120756340Y-100281604D01*
X120780576Y-100314914D01*
X120802091Y-100346500D01*
X120821400Y-100377062D01*
X120839016Y-100407303D01*
X120855455Y-100437922D01*
X120867141Y-100461192D01*
X120886574Y-100502943D01*
X120902093Y-100541326D01*
X120914845Y-100579550D01*
X120925976Y-100620824D01*
X120929522Y-100635803D01*
X120935552Y-100668615D01*
X120940009Y-100706432D01*
X120942807Y-100746894D01*
X120943862Y-100787643D01*
X120943089Y-100826320D01*
X120940402Y-100860567D01*
X120938167Y-100876157D01*
X120923390Y-100938795D01*
X120901284Y-100998333D01*
X120871657Y-101055125D01*
X120834314Y-101109531D01*
X120789064Y-101161905D01*
X120777325Y-101173894D01*
X120761562Y-101189962D01*
X120748608Y-101203800D01*
X120739298Y-101214464D01*
X120734463Y-101221011D01*
X120734313Y-101222652D01*
X120740107Y-101220845D01*
X120751582Y-101215923D01*
X120767078Y-101208640D01*
X120784895Y-101199765D01*
X120843160Y-101165794D01*
X120899783Y-101124671D01*
X120953662Y-101077527D01*
X121003694Y-101025491D01*
X121048777Y-100969694D01*
X121087807Y-100911265D01*
X121114791Y-100861633D01*
X121133127Y-100820373D01*
X121149731Y-100776110D01*
X121163355Y-100732375D01*
X121170480Y-100703835D01*
X121174109Y-100681105D01*
X121176697Y-100652218D01*
X121178243Y-100619249D01*
X121178746Y-100584275D01*
X121178203Y-100549372D01*
X121176613Y-100516617D01*
X121173975Y-100488086D01*
X121170656Y-100467516D01*
X121152896Y-100400735D01*
X121128586Y-100335529D01*
X121097330Y-100271083D01*
X121058734Y-100206582D01*
X121012752Y-100141669D01*
X120996304Y-100120575D01*
X120977716Y-100097782D01*
X120956375Y-100072586D01*
X120931665Y-100044281D01*
X120902971Y-100012164D01*
X120869680Y-99975531D01*
X120831647Y-99934186D01*
X120793097Y-99892270D01*
X120759754Y-99855546D01*
X120730993Y-99823301D01*
X120706192Y-99794820D01*
X120684727Y-99769388D01*
X120665977Y-99746292D01*
X120650749Y-99726704D01*
X120599862Y-99654790D01*
X120556905Y-99583384D01*
X120521951Y-99512634D01*
X120495072Y-99442687D01*
X120476341Y-99373691D01*
X120475452Y-99369458D01*
X120464965Y-99302166D01*
X120460543Y-99232697D01*
X120462041Y-99162533D01*
X120469316Y-99093152D01*
X120482223Y-99026034D01*
X120500616Y-98962660D01*
X120519924Y-98914012D01*
X120532444Y-98886400D01*
X120410206Y-98886400D01*
X120287967Y-98886400D01*
X120268942Y-98915810D01*
X120240080Y-98967125D01*
X120215498Y-99025055D01*
X120195451Y-99088956D01*
X120187671Y-99120855D01*
X120184651Y-99135258D01*
X120182358Y-99148830D01*
X120180693Y-99163052D01*
X120179560Y-99179405D01*
X120178860Y-99199372D01*
X120178495Y-99224432D01*
X120178369Y-99256069D01*
X120178364Y-99261943D01*
X120004270Y-99261943D01*
X120004265Y-99261653D01*
X120008726Y-99189134D01*
X120018858Y-99119513D01*
X120034687Y-99053890D01*
X120051748Y-99004304D01*
X120066240Y-98970346D01*
X120081490Y-98939134D01*
X120096388Y-98912878D01*
X120102152Y-98904036D01*
X120114248Y-98886400D01*
X119984372Y-98886451D01*
X119854497Y-98886503D01*
X119833276Y-98915098D01*
X119803570Y-98961492D01*
X119778323Y-99014289D01*
X119757709Y-99072785D01*
X119741900Y-99136279D01*
X119731068Y-99204066D01*
X119725386Y-99275444D01*
X119725027Y-99349710D01*
X119725218Y-99355358D01*
X119731616Y-99449481D01*
X119743898Y-99538694D01*
X119762351Y-99624216D01*
X119787267Y-99707268D01*
X119818934Y-99789071D01*
X119838124Y-99831432D01*
X119857409Y-99870553D01*
X119877587Y-99908362D01*
X119899193Y-99945606D01*
X119922760Y-99983033D01*
X119948822Y-100021389D01*
X119977915Y-100061421D01*
X120010572Y-100103877D01*
X120047326Y-100149504D01*
X120088713Y-100199049D01*
X120135267Y-100253259D01*
X120159916Y-100281513D01*
X120196037Y-100322899D01*
X120227158Y-100358951D01*
X120253904Y-100390437D01*
X120276898Y-100418126D01*
X120296765Y-100442785D01*
X120314129Y-100465185D01*
X120329614Y-100486093D01*
X120343845Y-100506277D01*
X120351019Y-100516837D01*
X120386991Y-100575410D01*
X120415636Y-100632868D01*
X120436943Y-100688930D01*
X120450902Y-100743317D01*
X120457500Y-100795749D01*
X120456728Y-100845947D01*
X120448573Y-100893632D01*
X120433025Y-100938523D01*
X120410073Y-100980342D01*
X120379706Y-101018808D01*
X120371205Y-101027619D01*
X120334781Y-101059976D01*
X120297230Y-101084980D01*
X120256867Y-101103558D01*
X120212009Y-101116639D01*
X120207956Y-101117522D01*
X120181515Y-101121269D01*
X120149678Y-101122845D01*
X120115029Y-101122367D01*
X120080151Y-101119952D01*
X120047626Y-101115714D01*
X120020037Y-101109770D01*
X120017211Y-101108956D01*
X119966467Y-101090437D01*
X119919107Y-101065923D01*
X119874799Y-101035089D01*
X119833212Y-100997605D01*
X119794017Y-100953145D01*
X119756881Y-100901380D01*
X119721474Y-100841982D01*
X119694299Y-100789014D01*
X119666683Y-100726822D01*
X119643208Y-100662966D01*
X119623485Y-100596047D01*
X119607124Y-100524665D01*
X119593737Y-100447418D01*
X119588177Y-100407246D01*
X119587302Y-100399800D01*
X119586499Y-100391439D01*
X119585766Y-100381778D01*
X119585096Y-100370437D01*
X119584487Y-100357032D01*
X119583935Y-100341181D01*
X119583434Y-100322501D01*
X119582982Y-100300609D01*
X119582573Y-100275123D01*
X119582204Y-100245659D01*
X119581871Y-100211837D01*
X119581570Y-100173272D01*
X119581296Y-100129582D01*
X119581046Y-100080384D01*
X119580942Y-100055564D01*
X119732139Y-100055564D01*
X119733253Y-100150586D01*
X119736552Y-100238278D01*
X119742142Y-100319347D01*
X119750126Y-100394495D01*
X119760608Y-100464428D01*
X119773693Y-100529851D01*
X119789485Y-100591469D01*
X119808087Y-100649985D01*
X119827568Y-100701189D01*
X119855043Y-100760922D01*
X119885368Y-100813577D01*
X119918382Y-100859011D01*
X119953924Y-100897080D01*
X119991833Y-100927643D01*
X120031948Y-100950556D01*
X120074107Y-100965675D01*
X120118149Y-100972859D01*
X120134598Y-100973476D01*
X120154350Y-100973282D01*
X120168668Y-100972129D01*
X120180404Y-100969500D01*
X120192409Y-100964878D01*
X120199158Y-100961774D01*
X120226238Y-100944537D01*
X120247793Y-100921169D01*
X120263556Y-100891962D01*
X120263933Y-100891010D01*
X120270166Y-100867617D01*
X120273238Y-100838997D01*
X120273151Y-100807599D01*
X120269905Y-100775867D01*
X120263862Y-100747518D01*
X120252894Y-100715567D01*
X120236865Y-100679013D01*
X120216514Y-100639186D01*
X120192583Y-100597416D01*
X120165814Y-100555035D01*
X120136948Y-100513371D01*
X120122846Y-100494389D01*
X120115454Y-100484840D01*
X120103696Y-100469866D01*
X120088401Y-100450513D01*
X120070399Y-100427828D01*
X120050520Y-100402856D01*
X120029592Y-100376644D01*
X120022536Y-100367825D01*
X119979233Y-100313371D01*
X119940999Y-100264484D01*
X119907387Y-100220528D01*
X119877951Y-100180867D01*
X119852247Y-100144865D01*
X119829827Y-100111887D01*
X119810246Y-100081296D01*
X119793059Y-100052457D01*
X119777819Y-100024733D01*
X119766741Y-100002954D01*
X119757382Y-99984627D01*
X119748882Y-99969322D01*
X119742071Y-99958439D01*
X119737777Y-99953376D01*
X119737269Y-99953182D01*
X119735587Y-99954900D01*
X119734287Y-99960797D01*
X119733332Y-99971636D01*
X119732681Y-99988180D01*
X119732299Y-100011194D01*
X119732145Y-100041439D01*
X119732139Y-100055564D01*
X119580942Y-100055564D01*
X119580815Y-100025297D01*
X119580600Y-99963936D01*
X119580395Y-99895920D01*
X119580198Y-99820866D01*
X119580004Y-99738392D01*
X119579808Y-99648113D01*
X119579750Y-99619851D01*
X119578241Y-98886400D01*
X119545196Y-98886400D01*
X119512151Y-98886400D01*
X119512151Y-98813781D01*
X119512151Y-98741162D01*
X120155140Y-98741162D01*
X120242667Y-98741143D01*
X120322251Y-98741099D01*
X120394245Y-98741054D01*
X120459006Y-98741032D01*
X120516888Y-98741056D01*
G37*
%TO.C,ESL_LOGO*%
G36*
X120007691Y-102660285D02*
G01*
X120009472Y-103405505D01*
X120027115Y-103453033D01*
X120063933Y-103535886D01*
X120109083Y-103608671D01*
X120162445Y-103671272D01*
X120223896Y-103723574D01*
X120293314Y-103765460D01*
X120370578Y-103796815D01*
X120397711Y-103804813D01*
X120409294Y-103807809D01*
X120420809Y-103810364D01*
X120433397Y-103812521D01*
X120448196Y-103814326D01*
X120466346Y-103815823D01*
X120488987Y-103817056D01*
X120517259Y-103818069D01*
X120552301Y-103818906D01*
X120595252Y-103819612D01*
X120647252Y-103820232D01*
X120709441Y-103820808D01*
X120782959Y-103821387D01*
X120833656Y-103821758D01*
X121216960Y-103824524D01*
X121216960Y-104021349D01*
X121216960Y-104218174D01*
X120823786Y-104217523D01*
X120728990Y-104217260D01*
X120646735Y-104216801D01*
X120576403Y-104216131D01*
X120517377Y-104215240D01*
X120469038Y-104214114D01*
X120430768Y-104212742D01*
X120401950Y-104211111D01*
X120381965Y-104209209D01*
X120377970Y-104208642D01*
X120300650Y-104192424D01*
X120220861Y-104168192D01*
X120143061Y-104137588D01*
X120071713Y-104102257D01*
X120042420Y-104084955D01*
X119954156Y-104022087D01*
X119873898Y-103949685D01*
X119802540Y-103868921D01*
X119740972Y-103780968D01*
X119690087Y-103686998D01*
X119650778Y-103588184D01*
X119641368Y-103557743D01*
X119635901Y-103538526D01*
X119631007Y-103520241D01*
X119626655Y-103502084D01*
X119622812Y-103483253D01*
X119619448Y-103462945D01*
X119616530Y-103440356D01*
X119614027Y-103414684D01*
X119611907Y-103385126D01*
X119610138Y-103350878D01*
X119608689Y-103311137D01*
X119607527Y-103265101D01*
X119606622Y-103211967D01*
X119605940Y-103150930D01*
X119605451Y-103081189D01*
X119605123Y-103001940D01*
X119604924Y-102912380D01*
X119604823Y-102811707D01*
X119604787Y-102699116D01*
X119604783Y-102631982D01*
X119604783Y-101915065D01*
X119805346Y-101915065D01*
X120005909Y-101915065D01*
X120007691Y-102660285D01*
G37*
G36*
X117025301Y-102115464D02*
G01*
X117025301Y-102316192D01*
X116431082Y-102317973D01*
X115836863Y-102319754D01*
X115787261Y-102344271D01*
X115735483Y-102376524D01*
X115693354Y-102417572D01*
X115660174Y-102468131D01*
X115654524Y-102479502D01*
X115644949Y-102500735D01*
X115638831Y-102518395D01*
X115635406Y-102536621D01*
X115633906Y-102559556D01*
X115633566Y-102591342D01*
X115633566Y-102592837D01*
X115633879Y-102625089D01*
X115635318Y-102648276D01*
X115638630Y-102666491D01*
X115644566Y-102683824D01*
X115653872Y-102704366D01*
X115654033Y-102704702D01*
X115683544Y-102754885D01*
X115719894Y-102794966D01*
X115765131Y-102827099D01*
X115776015Y-102833073D01*
X115797927Y-102844130D01*
X115816237Y-102851646D01*
X115834847Y-102856573D01*
X115857661Y-102859862D01*
X115888582Y-102862466D01*
X115899691Y-102863233D01*
X115918367Y-102864052D01*
X115949017Y-102864841D01*
X115990455Y-102865589D01*
X116041494Y-102866286D01*
X116100950Y-102866921D01*
X116167634Y-102867482D01*
X116240361Y-102867958D01*
X116317944Y-102868340D01*
X116399197Y-102868614D01*
X116482935Y-102868772D01*
X116500522Y-102868789D01*
X117025301Y-102869210D01*
X117025301Y-103069807D01*
X117025301Y-103270403D01*
X116431428Y-103272151D01*
X115837555Y-103273899D01*
X115793314Y-103294857D01*
X115739272Y-103326943D01*
X115695709Y-103366711D01*
X115663028Y-103413484D01*
X115641635Y-103466585D01*
X115631932Y-103525337D01*
X115632017Y-103565145D01*
X115641955Y-103623804D01*
X115663687Y-103677325D01*
X115696483Y-103724609D01*
X115739612Y-103764559D01*
X115782444Y-103791213D01*
X115797352Y-103798700D01*
X115810263Y-103804290D01*
X115823512Y-103808348D01*
X115839432Y-103811242D01*
X115860357Y-103813339D01*
X115888621Y-103815007D01*
X115926558Y-103816613D01*
X115949421Y-103817490D01*
X115977289Y-103818299D01*
X116016885Y-103819081D01*
X116066776Y-103819822D01*
X116125529Y-103820511D01*
X116191712Y-103821135D01*
X116263892Y-103821680D01*
X116340636Y-103822135D01*
X116420512Y-103822486D01*
X116502086Y-103822721D01*
X116549874Y-103822800D01*
X117025301Y-103823355D01*
X117025301Y-104020691D01*
X117025301Y-104218028D01*
X116464330Y-104219746D01*
X116377988Y-104219958D01*
X116294312Y-104220062D01*
X116214394Y-104220063D01*
X116139327Y-104219965D01*
X116070205Y-104219772D01*
X116008120Y-104219490D01*
X115954166Y-104219123D01*
X115909435Y-104218676D01*
X115875022Y-104218152D01*
X115852019Y-104217557D01*
X115844136Y-104217166D01*
X115778162Y-104207327D01*
X115709048Y-104187831D01*
X115640926Y-104159991D01*
X115604268Y-104140973D01*
X115543588Y-104100458D01*
X115484881Y-104049340D01*
X115430402Y-103990175D01*
X115382404Y-103925518D01*
X115343143Y-103857923D01*
X115330317Y-103830469D01*
X115299689Y-103743694D01*
X115280452Y-103652154D01*
X115272765Y-103557947D01*
X115276787Y-103463168D01*
X115292679Y-103369916D01*
X115294639Y-103361900D01*
X115309147Y-103315789D01*
X115330253Y-103264133D01*
X115355842Y-103211249D01*
X115383800Y-103161457D01*
X115412013Y-103119075D01*
X115416293Y-103113421D01*
X115453667Y-103065049D01*
X115434304Y-103044448D01*
X115392599Y-102992163D01*
X115355423Y-102929880D01*
X115323896Y-102860315D01*
X115299134Y-102786180D01*
X115282259Y-102710191D01*
X115275995Y-102660458D01*
X115273713Y-102563740D01*
X115283226Y-102470295D01*
X115303960Y-102380996D01*
X115335343Y-102296716D01*
X115376805Y-102218327D01*
X115427773Y-102146704D01*
X115487675Y-102082719D01*
X115555940Y-102027246D01*
X115631996Y-101981156D01*
X115715270Y-101945324D01*
X115752011Y-101933615D01*
X115804654Y-101918490D01*
X116414978Y-101916613D01*
X117025301Y-101914736D01*
X117025301Y-102115464D01*
G37*
G36*
X119104680Y-102115483D02*
G01*
X119104680Y-102315901D01*
X118553579Y-102317828D01*
X118002478Y-102319754D01*
X117958894Y-102340404D01*
X117907452Y-102371353D01*
X117865361Y-102410050D01*
X117832910Y-102454906D01*
X117810387Y-102504330D01*
X117798080Y-102556730D01*
X117796278Y-102610515D01*
X117805268Y-102664094D01*
X117825340Y-102715877D01*
X117856781Y-102764272D01*
X117877826Y-102787677D01*
X117904895Y-102810085D01*
X117938924Y-102831686D01*
X117974445Y-102849348D01*
X118002478Y-102859113D01*
X118012862Y-102860201D01*
X118035044Y-102861411D01*
X118067658Y-102862705D01*
X118109343Y-102864043D01*
X118158735Y-102865384D01*
X118214470Y-102866689D01*
X118275186Y-102867918D01*
X118339520Y-102869031D01*
X118344654Y-102869112D01*
X118418620Y-102870294D01*
X118480688Y-102871374D01*
X118532119Y-102872416D01*
X118574173Y-102873487D01*
X118608111Y-102874652D01*
X118635196Y-102875978D01*
X118656687Y-102877530D01*
X118673845Y-102879373D01*
X118687932Y-102881575D01*
X118700209Y-102884199D01*
X118711937Y-102887313D01*
X118715999Y-102888488D01*
X118803286Y-102920718D01*
X118883871Y-102963937D01*
X118956935Y-103017399D01*
X119021661Y-103080360D01*
X119077231Y-103152073D01*
X119122828Y-103231794D01*
X119142863Y-103277525D01*
X119171288Y-103365378D01*
X119188022Y-103453747D01*
X119193594Y-103541685D01*
X119188537Y-103628246D01*
X119173379Y-103712483D01*
X119148652Y-103793450D01*
X119114886Y-103870198D01*
X119072612Y-103941781D01*
X119022361Y-104007254D01*
X118964662Y-104065668D01*
X118900046Y-104116077D01*
X118829044Y-104157534D01*
X118752187Y-104189092D01*
X118670005Y-104209805D01*
X118616561Y-104216789D01*
X118601303Y-104217509D01*
X118574023Y-104218153D01*
X118535856Y-104218714D01*
X118487942Y-104219187D01*
X118431417Y-104219565D01*
X118367418Y-104219842D01*
X118297084Y-104220013D01*
X118221552Y-104220072D01*
X118141959Y-104220012D01*
X118059443Y-104219828D01*
X118043605Y-104219779D01*
X117525405Y-104218094D01*
X117525405Y-104020724D01*
X117525405Y-103823355D01*
X118017283Y-103823068D01*
X118120675Y-103822973D01*
X118211785Y-103822790D01*
X118291488Y-103822478D01*
X118360663Y-103821998D01*
X118420187Y-103821310D01*
X118470938Y-103820374D01*
X118513793Y-103819149D01*
X118549629Y-103817597D01*
X118579325Y-103815677D01*
X118603756Y-103813349D01*
X118623801Y-103810573D01*
X118640338Y-103807310D01*
X118654243Y-103803519D01*
X118666394Y-103799161D01*
X118677668Y-103794195D01*
X118680359Y-103792899D01*
X118726893Y-103763485D01*
X118768193Y-103724310D01*
X118801070Y-103678613D01*
X118810356Y-103660920D01*
X118819817Y-103640065D01*
X118825954Y-103622844D01*
X118829475Y-103605324D01*
X118831093Y-103583572D01*
X118831516Y-103553656D01*
X118831517Y-103543692D01*
X118831225Y-103510933D01*
X118829962Y-103487464D01*
X118827022Y-103469416D01*
X118821698Y-103452923D01*
X118813283Y-103434115D01*
X118810416Y-103428193D01*
X118786655Y-103389421D01*
X118754895Y-103351457D01*
X118719590Y-103319364D01*
X118706427Y-103309931D01*
X118689300Y-103300771D01*
X118665567Y-103290626D01*
X118647348Y-103284056D01*
X118637320Y-103281017D01*
X118626532Y-103278469D01*
X118613727Y-103276356D01*
X118597648Y-103274621D01*
X118577038Y-103273207D01*
X118550640Y-103272059D01*
X118517198Y-103271121D01*
X118475454Y-103270335D01*
X118424150Y-103269645D01*
X118362031Y-103268996D01*
X118298592Y-103268423D01*
X118222339Y-103267728D01*
X118157860Y-103266985D01*
X118103767Y-103266058D01*
X118058673Y-103264812D01*
X118021192Y-103263110D01*
X117989935Y-103260819D01*
X117963517Y-103257801D01*
X117940550Y-103253922D01*
X117919646Y-103249046D01*
X117899420Y-103243037D01*
X117878484Y-103235760D01*
X117855450Y-103227080D01*
X117848654Y-103224464D01*
X117783870Y-103193659D01*
X117719549Y-103152190D01*
X117658500Y-103102344D01*
X117603533Y-103046407D01*
X117558646Y-102988437D01*
X117522127Y-102926502D01*
X117489993Y-102856578D01*
X117464498Y-102783664D01*
X117461431Y-102772943D01*
X117454875Y-102748383D01*
X117450143Y-102727248D01*
X117446953Y-102706588D01*
X117445021Y-102683450D01*
X117444066Y-102654885D01*
X117443804Y-102617942D01*
X117443866Y-102589547D01*
X117444296Y-102543368D01*
X117445335Y-102507592D01*
X117447213Y-102479465D01*
X117450161Y-102456236D01*
X117454408Y-102435151D01*
X117457905Y-102421546D01*
X117489982Y-102326208D01*
X117531429Y-102239852D01*
X117582100Y-102162665D01*
X117641849Y-102094835D01*
X117710532Y-102036547D01*
X117788002Y-101987988D01*
X117801749Y-101980858D01*
X117823540Y-101969977D01*
X117843744Y-101960368D01*
X117863290Y-101951953D01*
X117883106Y-101944652D01*
X117904123Y-101938386D01*
X117927271Y-101933076D01*
X117953477Y-101928643D01*
X117983673Y-101925007D01*
X118018787Y-101922089D01*
X118059748Y-101919811D01*
X118107487Y-101918092D01*
X118162932Y-101916855D01*
X118227013Y-101916018D01*
X118300660Y-101915504D01*
X118384802Y-101915233D01*
X118480367Y-101915125D01*
X118573320Y-101915104D01*
X119104680Y-101915065D01*
X119104680Y-102115483D01*
G37*
%TD*%
D11*
%TO.C,R33*%
X141477000Y-62738000D03*
X139827000Y-62738000D03*
%TD*%
D12*
%TO.C,TP11*%
X156083000Y-86487000D03*
%TD*%
D13*
%TO.C,R31*%
X138303000Y-61214000D03*
X138303000Y-62864000D03*
%TD*%
D14*
%TO.C,C32*%
X139491600Y-89052400D03*
X138531600Y-89052400D03*
%TD*%
D13*
%TO.C,R26*%
X148209000Y-101092000D03*
X148209000Y-102742000D03*
%TD*%
%TO.C,R25*%
X154935000Y-104899000D03*
X154935000Y-106549000D03*
%TD*%
D12*
%TO.C,TP12*%
X151003000Y-79121000D03*
%TD*%
D15*
%TO.C,D8*%
X154178000Y-101126000D03*
X154178000Y-103226000D03*
%TD*%
D12*
%TO.C,TP4*%
X143383000Y-86360000D03*
%TD*%
%TO.C,TP8*%
X141859000Y-87884000D03*
%TD*%
%TO.C,TP9*%
X123571000Y-105029000D03*
%TD*%
D14*
%TO.C,C17*%
X137541000Y-89052400D03*
X136581000Y-89052400D03*
%TD*%
D16*
%TO.C,Q3*%
X116880600Y-80998300D03*
X118780600Y-80998300D03*
X117830600Y-79123300D03*
%TD*%
D17*
%TO.C,C6*%
X171196000Y-87376000D03*
X169646000Y-87376000D03*
%TD*%
D16*
%TO.C,Q4*%
X109625600Y-80998300D03*
X111525600Y-80998300D03*
X110575600Y-79123300D03*
%TD*%
D12*
%TO.C,TP2*%
X149606000Y-85979000D03*
%TD*%
D18*
%TO.C,C33*%
X155956000Y-101092000D03*
X155956000Y-99542000D03*
%TD*%
D19*
%TO.C,J19*%
X137317000Y-59309000D03*
X136667000Y-59309000D03*
X136017000Y-59309000D03*
X135367000Y-59309000D03*
X134717000Y-59309000D03*
D20*
X139517000Y-56609000D03*
D21*
X138917000Y-56609000D03*
D22*
X138517000Y-59309000D03*
D23*
X137017000Y-56609000D03*
X135017000Y-56609000D03*
D22*
X133517000Y-59309000D03*
D21*
X133117000Y-56609000D03*
D20*
X132517000Y-56609000D03*
%TD*%
D24*
%TO.C,C10*%
X134874000Y-87884000D03*
X135834000Y-87884000D03*
%TD*%
D11*
%TO.C,R18*%
X168783000Y-67945000D03*
X167133000Y-67945000D03*
%TD*%
D25*
%TO.C,D1*%
X126238000Y-107950000D03*
X126238000Y-111250000D03*
%TD*%
D26*
%TO.C,Q7*%
X115159000Y-66192400D03*
X115159000Y-64292400D03*
X113284000Y-65242400D03*
%TD*%
D13*
%TO.C,R23*%
X156718000Y-61214000D03*
X156718000Y-62864000D03*
%TD*%
D27*
%TO.C,C2*%
X135260000Y-103886000D03*
X137160000Y-103886000D03*
%TD*%
D24*
%TO.C,C31*%
X170053000Y-94488000D03*
X171013000Y-94488000D03*
%TD*%
D13*
%TO.C,R2*%
X122504200Y-79679800D03*
X122504200Y-81329800D03*
%TD*%
D12*
%TO.C,TP5*%
X143637000Y-113665000D03*
%TD*%
D28*
%TO.C,Q5*%
X108798400Y-87888600D03*
X106898400Y-87888600D03*
X107848400Y-89763600D03*
%TD*%
D24*
%TO.C,C27*%
X156514800Y-69977000D03*
X157474800Y-69977000D03*
%TD*%
D28*
%TO.C,Q6*%
X118323400Y-87888600D03*
X116423400Y-87888600D03*
X117373400Y-89763600D03*
%TD*%
D29*
%TO.C,D3*%
X121266200Y-76074000D03*
X125266200Y-76074000D03*
%TD*%
D24*
%TO.C,C30*%
X170053000Y-101346000D03*
X171013000Y-101346000D03*
%TD*%
D13*
%TO.C,R20*%
X164084000Y-61214000D03*
X164084000Y-62864000D03*
%TD*%
D30*
%TO.C,R1*%
X125413000Y-112776000D03*
X127063000Y-112776000D03*
%TD*%
D13*
%TO.C,R4*%
X115392200Y-79680800D03*
X115392200Y-81330800D03*
%TD*%
D31*
%TO.C,J1*%
X109154000Y-103917500D03*
D32*
X109154000Y-99957500D03*
%TD*%
D29*
%TO.C,D5*%
X106788200Y-76074000D03*
X110788200Y-76074000D03*
%TD*%
D13*
%TO.C,R22*%
X154686000Y-61214000D03*
X154686000Y-62864000D03*
%TD*%
D11*
%TO.C,R17*%
X168656000Y-71247000D03*
X167006000Y-71247000D03*
%TD*%
%TO.C,R16*%
X168656000Y-72771000D03*
X167006000Y-72771000D03*
%TD*%
D33*
%TO.C,D13*%
X165422000Y-96266000D03*
X163322000Y-96266000D03*
%TD*%
D34*
%TO.C,R3*%
X121031000Y-81329800D03*
X121031000Y-79679800D03*
%TD*%
D35*
%TO.C,C26*%
X159216411Y-70020822D03*
X158537589Y-69342000D03*
%TD*%
D36*
%TO.C,C9*%
X152146000Y-70358000D03*
X152146000Y-68458000D03*
%TD*%
D37*
%TO.C,D2*%
X129540000Y-108744000D03*
X129540000Y-112744000D03*
%TD*%
D38*
%TO.C,C1*%
X135128000Y-107249000D03*
X135128000Y-112649000D03*
%TD*%
D39*
%TO.C,C3*%
X135991000Y-98679000D03*
X137541000Y-98679000D03*
%TD*%
D40*
%TO.C,D18*%
X141402000Y-61214000D03*
X139827000Y-61214000D03*
%TD*%
D41*
%TO.C,FB2*%
X162900992Y-77383008D03*
X161787300Y-78496700D03*
%TD*%
D42*
%TO.C,J20*%
X116586000Y-57277000D03*
D43*
X118586000Y-57277000D03*
X120586000Y-57277000D03*
X122586000Y-57277000D03*
X124586000Y-57277000D03*
X126586000Y-57277000D03*
%TD*%
D30*
%TO.C,R27*%
X163322000Y-98044000D03*
X164972000Y-98044000D03*
%TD*%
D13*
%TO.C,R9*%
X112420400Y-87858600D03*
X112420400Y-89508600D03*
%TD*%
D44*
%TO.C,U1*%
X167993000Y-85344000D03*
X170293000Y-85344000D03*
D45*
X170293000Y-79044000D03*
D44*
X172593000Y-85344000D03*
%TD*%
D46*
%TO.C,J2*%
X140589000Y-111379000D03*
D47*
X140589000Y-108839000D03*
%TD*%
D48*
%TO.C,D9*%
X152273000Y-103192000D03*
X152273000Y-101092000D03*
%TD*%
D49*
%TO.C,C18*%
X144018000Y-91694000D03*
X144018000Y-92654000D03*
%TD*%
D35*
%TO.C,C24*%
X161968822Y-72773233D03*
X161290000Y-72094411D03*
%TD*%
D39*
%TO.C,C15*%
X144767000Y-81534000D03*
X146317000Y-81534000D03*
%TD*%
D12*
%TO.C,TP10*%
X149606000Y-83947000D03*
%TD*%
D50*
%TO.C,D17*%
X141478000Y-72085000D03*
X141478000Y-73660000D03*
%TD*%
D11*
%TO.C,R29*%
X136969000Y-90805000D03*
X135319000Y-90805000D03*
%TD*%
D35*
%TO.C,C25*%
X160571822Y-71376233D03*
X159893000Y-70697411D03*
%TD*%
D36*
%TO.C,C8*%
X164084000Y-83180000D03*
X164084000Y-81280000D03*
%TD*%
D49*
%TO.C,C29*%
X145288000Y-110131000D03*
X145288000Y-111091000D03*
%TD*%
D12*
%TO.C,TP13*%
X153543000Y-72136000D03*
%TD*%
D50*
%TO.C,D7*%
X144729200Y-72085000D03*
X144729200Y-73660000D03*
%TD*%
D11*
%TO.C,R13*%
X115492800Y-69662000D03*
X113842800Y-69662000D03*
%TD*%
D12*
%TO.C,TP1*%
X116484400Y-105765600D03*
%TD*%
D13*
%TO.C,R11*%
X121945400Y-87858600D03*
X121945400Y-89508600D03*
%TD*%
D34*
%TO.C,R8*%
X110642400Y-89508600D03*
X110642400Y-87858600D03*
%TD*%
D13*
%TO.C,R14*%
X130606800Y-84354400D03*
X130606800Y-86004400D03*
%TD*%
D51*
%TO.C,L1*%
X139192000Y-99949000D03*
X142892000Y-99949000D03*
%TD*%
D49*
%TO.C,C11*%
X143481500Y-78923000D03*
X143481500Y-79883000D03*
%TD*%
D34*
%TO.C,R34*%
X143103600Y-70649500D03*
X143103600Y-68999500D03*
%TD*%
D52*
%TO.C,SW1*%
X131521200Y-88696800D03*
X131521200Y-93056800D03*
%TD*%
D53*
%TO.C,FB1*%
X144754500Y-80010000D03*
X146329500Y-80010000D03*
%TD*%
D12*
%TO.C,TP6*%
X141605000Y-92456000D03*
%TD*%
D54*
%TO.C,C28*%
X161544000Y-104394000D03*
X161544000Y-103434000D03*
%TD*%
D34*
%TO.C,R5*%
X113919000Y-81330800D03*
X113919000Y-79680800D03*
%TD*%
D12*
%TO.C,TP3*%
X130937000Y-105029000D03*
%TD*%
D15*
%TO.C,D10*%
X146431000Y-101092000D03*
X146431000Y-103192000D03*
%TD*%
D34*
%TO.C,R35*%
X141579600Y-70649500D03*
X141579600Y-68999500D03*
%TD*%
D55*
%TO.C,D6*%
X110490000Y-69088000D03*
X110490000Y-65088000D03*
%TD*%
D17*
%TO.C,C16*%
X146317000Y-78486000D03*
X144767000Y-78486000D03*
%TD*%
D29*
%TO.C,D4*%
X114033800Y-76074000D03*
X118033800Y-76074000D03*
%TD*%
D56*
%TO.C,C20*%
X161798000Y-76327000D03*
X160701984Y-77423016D03*
%TD*%
D34*
%TO.C,R15*%
X144587600Y-70649500D03*
X144587600Y-68999500D03*
%TD*%
D57*
%TO.C,U6*%
X156469000Y-108137000D03*
X157739000Y-108137000D03*
X158999000Y-108137000D03*
X160269000Y-108137000D03*
X160269000Y-102937000D03*
X158999000Y-102937000D03*
X157739000Y-102937000D03*
X156469000Y-102937000D03*
%TD*%
D48*
%TO.C,D11*%
X149987000Y-103192000D03*
X149987000Y-101092000D03*
%TD*%
D34*
%TO.C,R10*%
X120167400Y-89508600D03*
X120167400Y-87858600D03*
%TD*%
D30*
%TO.C,R32*%
X139827000Y-64262000D03*
X141477000Y-64262000D03*
%TD*%
D16*
%TO.C,Q2*%
X124000600Y-80998300D03*
X125900600Y-80998300D03*
X124950600Y-79123300D03*
%TD*%
D12*
%TO.C,TP7*%
X164973000Y-79502000D03*
%TD*%
D54*
%TO.C,C13*%
X132051500Y-85389600D03*
X132051500Y-84429600D03*
%TD*%
D18*
%TO.C,C7*%
X165862000Y-83185000D03*
X165862000Y-81635000D03*
%TD*%
D11*
%TO.C,R19*%
X168783000Y-65913000D03*
X167133000Y-65913000D03*
%TD*%
D58*
%TO.C,U2*%
X134874000Y-100208000D03*
X134874000Y-101158000D03*
X134874000Y-102108000D03*
X137149000Y-102108000D03*
X137149000Y-101158000D03*
X137149000Y-100208000D03*
%TD*%
D59*
%TO.C,R30*%
X152602363Y-73556258D03*
X151435637Y-74722984D03*
%TD*%
D13*
%TO.C,R6*%
X108153200Y-79680800D03*
X108153200Y-81330800D03*
%TD*%
D60*
%TO.C,J18*%
X149479000Y-58293000D03*
D43*
X147479000Y-58293000D03*
X145479000Y-58293000D03*
X143479000Y-58293000D03*
%TD*%
D24*
%TO.C,C12*%
X134549000Y-76327000D03*
X135509000Y-76327000D03*
%TD*%
D61*
%TO.C,D12*%
X163322000Y-99822000D03*
X165422000Y-99822000D03*
%TD*%
D35*
%TO.C,C19*%
X161968822Y-74465822D03*
X161290000Y-73787000D03*
%TD*%
D50*
%TO.C,D16*%
X143103600Y-72085000D03*
X143103600Y-73660000D03*
%TD*%
D62*
%TO.C,C23*%
X154766016Y-81614016D03*
X153670000Y-80518000D03*
%TD*%
D34*
%TO.C,R7*%
X106680000Y-81330800D03*
X106680000Y-79680800D03*
%TD*%
D63*
%TO.C,C4*%
X140650000Y-103886000D03*
X138750000Y-103886000D03*
%TD*%
D64*
%TO.C,U5*%
X160616219Y-75436410D03*
X160156600Y-74976791D03*
X159696981Y-74517172D03*
X159237361Y-74057552D03*
X158770671Y-73590862D03*
X158311051Y-73131242D03*
X157851432Y-72671623D03*
X157391812Y-72212003D03*
X156932193Y-71752384D03*
X156472574Y-71292765D03*
X152413781Y-75351558D03*
X152873400Y-75811177D03*
X153333019Y-76270796D03*
X153792639Y-76730416D03*
X154252258Y-77190035D03*
X154711878Y-77649655D03*
X155178568Y-78116345D03*
X155638188Y-78575965D03*
X156097807Y-79035584D03*
X156557426Y-79495203D03*
%TD*%
D65*
%TO.C,C22*%
X155150178Y-80093178D03*
X155829000Y-80772000D03*
%TD*%
D11*
%TO.C,R24*%
X159004000Y-101092000D03*
X157354000Y-101092000D03*
%TD*%
D30*
%TO.C,R12*%
X113842800Y-67934800D03*
X115492800Y-67934800D03*
%TD*%
%TO.C,R28*%
X163322000Y-91186000D03*
X164972000Y-91186000D03*
%TD*%
D66*
%TO.C,Q1*%
X123302000Y-113025000D03*
X123302000Y-110745000D03*
D67*
X117002000Y-110745000D03*
D66*
X123302000Y-108465000D03*
%TD*%
D68*
%TO.C,U4*%
X145669000Y-87884000D03*
X145669000Y-89154000D03*
X145669000Y-90424000D03*
X145669000Y-91694000D03*
X145669000Y-92964000D03*
X145669000Y-94234000D03*
X145669000Y-95504000D03*
X150579000Y-95504000D03*
X150579000Y-94234000D03*
X150579000Y-92964000D03*
X150579000Y-91694000D03*
X150579000Y-90424000D03*
X150579000Y-89154000D03*
X150579000Y-87884000D03*
%TD*%
D33*
%TO.C,D15*%
X165422000Y-89408000D03*
X163322000Y-89408000D03*
%TD*%
D63*
%TO.C,C5*%
X140650000Y-105898000D03*
X138750000Y-105898000D03*
%TD*%
D69*
%TO.C,U3*%
X135045000Y-86331500D03*
X135545000Y-86331500D03*
X136045000Y-86331500D03*
X136545000Y-86331500D03*
X137045000Y-86331500D03*
X137545000Y-86331500D03*
X138045000Y-86331500D03*
X138545000Y-86331500D03*
X139045000Y-86331500D03*
X139545000Y-86331500D03*
X140045000Y-86331500D03*
X140545000Y-86331500D03*
D70*
X141957500Y-84919000D03*
X141957500Y-84419000D03*
X141957500Y-83919000D03*
X141957500Y-83419000D03*
X141957500Y-82919000D03*
X141957500Y-82419000D03*
X141957500Y-81919000D03*
X141957500Y-81419000D03*
X141957500Y-80919000D03*
X141957500Y-80419000D03*
X141957500Y-79919000D03*
X141957500Y-79419000D03*
D69*
X140545000Y-78006500D03*
X140045000Y-78006500D03*
X139545000Y-78006500D03*
X139045000Y-78006500D03*
X138545000Y-78006500D03*
X138045000Y-78006500D03*
X137545000Y-78006500D03*
X137045000Y-78006500D03*
X136545000Y-78006500D03*
X136045000Y-78006500D03*
X135545000Y-78006500D03*
X135045000Y-78006500D03*
D70*
X133632500Y-79419000D03*
X133632500Y-79919000D03*
X133632500Y-80419000D03*
X133632500Y-80919000D03*
X133632500Y-81419000D03*
X133632500Y-81919000D03*
X133632500Y-82419000D03*
X133632500Y-82919000D03*
X133632500Y-83419000D03*
X133632500Y-83919000D03*
X133632500Y-84419000D03*
X133632500Y-84919000D03*
%TD*%
D13*
%TO.C,R21*%
X162052000Y-61214000D03*
X162052000Y-62864000D03*
%TD*%
D62*
%TO.C,C21*%
X160782000Y-79535032D03*
X159685984Y-78439016D03*
%TD*%
D61*
%TO.C,D14*%
X163322000Y-92964000D03*
X165422000Y-92964000D03*
%TD*%
D49*
%TO.C,C14*%
X143481500Y-80828000D03*
X143481500Y-81788000D03*
%TD*%
D71*
%TO.C,J7*%
X117144800Y-92964000D03*
D32*
X121104800Y-92964000D03*
%TD*%
D72*
%TO.C,J10*%
X171704000Y-65913000D03*
D73*
X171704000Y-67913000D03*
%TD*%
D72*
%TO.C,J8*%
X107315000Y-66072000D03*
D73*
X107315000Y-68072000D03*
%TD*%
D42*
%TO.C,J12*%
X154718000Y-58293000D03*
D43*
X156718000Y-58293000D03*
%TD*%
D60*
%TO.C,J15*%
X172529000Y-98552000D03*
D43*
X170529000Y-98552000D03*
X168529000Y-98552000D03*
%TD*%
D74*
%TO.C,J9*%
X172821600Y-74898000D03*
D73*
X172821600Y-72898000D03*
%TD*%
D60*
%TO.C,J5*%
X109569000Y-72822800D03*
D43*
X107569000Y-72822800D03*
%TD*%
D74*
%TO.C,J14*%
X148082000Y-112395000D03*
D73*
X148082000Y-110395000D03*
X148082000Y-108395000D03*
%TD*%
D60*
%TO.C,J16*%
X172529000Y-91694000D03*
D43*
X170529000Y-91694000D03*
X168529000Y-91694000D03*
%TD*%
D71*
%TO.C,J6*%
X108104800Y-92964000D03*
D32*
X112064800Y-92964000D03*
%TD*%
D60*
%TO.C,J3*%
X124047000Y-72822800D03*
D43*
X122047000Y-72822800D03*
%TD*%
D42*
%TO.C,J13*%
X154813000Y-111633000D03*
D43*
X156813000Y-111633000D03*
X158813000Y-111633000D03*
X160813000Y-111633000D03*
%TD*%
D60*
%TO.C,J4*%
X116782600Y-72797400D03*
D43*
X114782600Y-72797400D03*
%TD*%
D42*
%TO.C,J17*%
X136956800Y-92583000D03*
D43*
X138956800Y-92583000D03*
%TD*%
D60*
%TO.C,J11*%
X164052000Y-57200800D03*
D43*
X162052000Y-57200800D03*
%TD*%
M02*
