%TF.GenerationSoftware,KiCad,Pcbnew,9.0.2*%
%TF.CreationDate,2026-08-21T13:17:05+02:00*%
%TF.ProjectId,ResistojetV1,52657369-7374-46f6-9a65-7456312e6b69,0.1*%
%TF.SameCoordinates,Original*%
%TF.FileFunction,Paste,Top*%
%TF.FilePolarity,Positive*%
%FSLAX46Y46*%
G04 Gerber Fmt 4.6, Leading zero omitted, Abs format (unit mm)*
G04 Created by KiCad (PCBNEW 9.0.2) date 2026-08-21 13:17:05*
%MOMM*%
%LPD*%
G01*
G04 APERTURE LIST*
G04 Aperture macros list*
%AMRoundRect*
0 Rectangle with rounded corners*
0 $1 Rounding radius*
0 $2 $3 $4 $5 $6 $7 $8 $9 X,Y pos of 4 corners*
0 Add a 4 corners polygon primitive as box body*
4,1,4,$2,$3,$4,$5,$6,$7,$8,$9,$2,$3,0*
0 Add four circle primitives for the rounded corners*
1,1,$1+$1,$2,$3*
1,1,$1+$1,$4,$5*
1,1,$1+$1,$6,$7*
1,1,$1+$1,$8,$9*
0 Add four rect primitives between the rounded corners*
20,1,$1+$1,$2,$3,$4,$5,0*
20,1,$1+$1,$4,$5,$6,$7,0*
20,1,$1+$1,$6,$7,$8,$9,0*
20,1,$1+$1,$8,$9,$2,$3,0*%
%AMHorizOval*
0 Thick line with rounded ends*
0 $1 width*
0 $2 $3 position (X,Y) of the first rounded end (center of the circle)*
0 $4 $5 position (X,Y) of the second rounded end (center of the circle)*
0 Add line between two ends*
20,1,$1,$2,$3,$4,$5,0*
0 Add two circle primitives to create the rounded ends*
1,1,$1,$2,$3*
1,1,$1,$4,$5*%
G04 Aperture macros list end*
%ADD10RoundRect,0.200000X0.200000X0.275000X-0.200000X0.275000X-0.200000X-0.275000X0.200000X-0.275000X0*%
%ADD11RoundRect,0.200000X-0.275000X0.200000X-0.275000X-0.200000X0.275000X-0.200000X0.275000X0.200000X0*%
%ADD12RoundRect,0.140000X0.140000X0.170000X-0.140000X0.170000X-0.140000X-0.170000X0.140000X-0.170000X0*%
%ADD13RoundRect,0.112500X-0.112500X0.187500X-0.112500X-0.187500X0.112500X-0.187500X0.112500X0.187500X0*%
%ADD14RoundRect,0.150000X0.150000X-0.587500X0.150000X0.587500X-0.150000X0.587500X-0.150000X-0.587500X0*%
%ADD15RoundRect,0.225000X0.225000X0.250000X-0.225000X0.250000X-0.225000X-0.250000X0.225000X-0.250000X0*%
%ADD16RoundRect,0.225000X0.250000X-0.225000X0.250000X0.225000X-0.250000X0.225000X-0.250000X-0.225000X0*%
%ADD17R,0.400000X1.350000*%
%ADD18R,1.500000X1.900000*%
%ADD19RoundRect,0.140000X-0.140000X-0.170000X0.140000X-0.170000X0.140000X0.170000X-0.140000X0.170000X0*%
%ADD20RoundRect,0.225000X-0.375000X0.225000X-0.375000X-0.225000X0.375000X-0.225000X0.375000X0.225000X0*%
%ADD21RoundRect,0.150000X0.587500X0.150000X-0.587500X0.150000X-0.587500X-0.150000X0.587500X-0.150000X0*%
%ADD22RoundRect,0.250000X-0.250000X-0.475000X0.250000X-0.475000X0.250000X0.475000X-0.250000X0.475000X0*%
%ADD23RoundRect,0.150000X-0.150000X0.587500X-0.150000X-0.587500X0.150000X-0.587500X0.150000X0.587500X0*%
%ADD24RoundRect,0.250000X-1.000000X-0.650000X1.000000X-0.650000X1.000000X0.650000X-1.000000X0.650000X0*%
%ADD25RoundRect,0.200000X-0.200000X-0.275000X0.200000X-0.275000X0.200000X0.275000X-0.200000X0.275000X0*%
%ADD26RoundRect,0.112500X0.187500X0.112500X-0.187500X0.112500X-0.187500X-0.112500X0.187500X-0.112500X0*%
%ADD27RoundRect,0.200000X0.275000X-0.200000X0.275000X0.200000X-0.275000X0.200000X-0.275000X-0.200000X0*%
%ADD28RoundRect,0.140000X0.219203X0.021213X0.021213X0.219203X-0.219203X-0.021213X-0.021213X-0.219203X0*%
%ADD29RoundRect,0.250000X0.475000X-0.250000X0.475000X0.250000X-0.475000X0.250000X-0.475000X-0.250000X0*%
%ADD30RoundRect,0.250000X-0.650000X1.000000X-0.650000X-1.000000X0.650000X-1.000000X0.650000X1.000000X0*%
%ADD31RoundRect,0.250000X-0.550000X1.500000X-0.550000X-1.500000X0.550000X-1.500000X0.550000X1.500000X0*%
%ADD32RoundRect,0.225000X-0.225000X-0.250000X0.225000X-0.250000X0.225000X0.250000X-0.225000X0.250000X0*%
%ADD33RoundRect,0.218750X0.218750X0.256250X-0.218750X0.256250X-0.218750X-0.256250X0.218750X-0.256250X0*%
%ADD34RoundRect,0.218750X-0.026517X0.335876X-0.335876X0.026517X0.026517X-0.335876X0.335876X-0.026517X0*%
%ADD35RoundRect,0.375000X0.375000X-0.625000X0.375000X0.625000X-0.375000X0.625000X-0.375000X-0.625000X0*%
%ADD36RoundRect,0.500000X1.400000X-0.500000X1.400000X0.500000X-1.400000X0.500000X-1.400000X-0.500000X0*%
%ADD37RoundRect,0.112500X0.112500X-0.187500X0.112500X0.187500X-0.112500X0.187500X-0.112500X-0.187500X0*%
%ADD38RoundRect,0.140000X-0.170000X0.140000X-0.170000X-0.140000X0.170000X-0.140000X0.170000X0.140000X0*%
%ADD39RoundRect,0.218750X-0.256250X0.218750X-0.256250X-0.218750X0.256250X-0.218750X0.256250X0.218750X0*%
%ADD40RoundRect,0.249999X-0.450001X-1.850001X0.450001X-1.850001X0.450001X1.850001X-0.450001X1.850001X0*%
%ADD41R,1.860000X1.230000*%
%ADD42RoundRect,0.218750X-0.218750X-0.256250X0.218750X-0.256250X0.218750X0.256250X-0.218750X0.256250X0*%
%ADD43RoundRect,0.140000X0.170000X-0.140000X0.170000X0.140000X-0.170000X0.140000X-0.170000X-0.140000X0*%
%ADD44RoundRect,0.250000X0.650000X-1.000000X0.650000X1.000000X-0.650000X1.000000X-0.650000X-1.000000X0*%
%ADD45RoundRect,0.225000X-0.017678X0.335876X-0.335876X0.017678X0.017678X-0.335876X0.335876X-0.017678X0*%
%ADD46O,0.588000X1.800000*%
%ADD47RoundRect,0.150000X-0.512500X-0.150000X0.512500X-0.150000X0.512500X0.150000X-0.512500X0.150000X0*%
%ADD48RoundRect,0.200000X-0.053033X0.335876X-0.335876X0.053033X0.053033X-0.335876X0.335876X-0.053033X0*%
%ADD49RoundRect,0.112500X-0.187500X-0.112500X0.187500X-0.112500X0.187500X0.112500X-0.187500X0.112500X0*%
%ADD50RoundRect,0.225000X0.335876X0.017678X0.017678X0.335876X-0.335876X-0.017678X-0.017678X-0.335876X0*%
%ADD51RoundRect,0.250000X0.250000X0.475000X-0.250000X0.475000X-0.250000X-0.475000X0.250000X-0.475000X0*%
%ADD52HorizOval,0.364000X0.487197X0.487197X-0.487197X-0.487197X0*%
%ADD53RoundRect,0.140000X-0.219203X-0.021213X-0.021213X-0.219203X0.219203X0.021213X0.021213X0.219203X0*%
%ADD54RoundRect,0.250000X1.275000X1.125000X-1.275000X1.125000X-1.275000X-1.125000X1.275000X-1.125000X0*%
%ADD55RoundRect,0.250000X0.850000X0.350000X-0.850000X0.350000X-0.850000X-0.350000X0.850000X-0.350000X0*%
%ADD56RoundRect,0.075000X-0.875000X-0.225000X0.875000X-0.225000X0.875000X0.225000X-0.875000X0.225000X0*%
%ADD57RoundRect,0.075000X0.075000X-0.662500X0.075000X0.662500X-0.075000X0.662500X-0.075000X-0.662500X0*%
%ADD58RoundRect,0.075000X0.662500X-0.075000X0.662500X0.075000X-0.662500X0.075000X-0.662500X-0.075000X0*%
G04 APERTURE END LIST*
D10*
%TO.C,R33*%
X141477000Y-62738000D03*
X139827000Y-62738000D03*
%TD*%
D11*
%TO.C,R31*%
X138303000Y-61214000D03*
X138303000Y-62864000D03*
%TD*%
D12*
%TO.C,C32*%
X139491600Y-89052400D03*
X138531600Y-89052400D03*
%TD*%
D11*
%TO.C,R26*%
X148209000Y-101092000D03*
X148209000Y-102742000D03*
%TD*%
%TO.C,R25*%
X154935000Y-104899000D03*
X154935000Y-106549000D03*
%TD*%
D13*
%TO.C,D8*%
X154178000Y-101126000D03*
X154178000Y-103226000D03*
%TD*%
D12*
%TO.C,C17*%
X137541000Y-89052400D03*
X136581000Y-89052400D03*
%TD*%
D14*
%TO.C,Q3*%
X116880600Y-80998300D03*
X118780600Y-80998300D03*
X117830600Y-79123300D03*
%TD*%
D15*
%TO.C,C6*%
X171196000Y-87376000D03*
X169646000Y-87376000D03*
%TD*%
D14*
%TO.C,Q4*%
X109625600Y-80998300D03*
X111525600Y-80998300D03*
X110575600Y-79123300D03*
%TD*%
D16*
%TO.C,C33*%
X155956000Y-101092000D03*
X155956000Y-99542000D03*
%TD*%
D17*
%TO.C,J19*%
X137317000Y-59309000D03*
X136667000Y-59309000D03*
X136017000Y-59309000D03*
X135367000Y-59309000D03*
X134717000Y-59309000D03*
D18*
X137017000Y-56609000D03*
X135017000Y-56609000D03*
%TD*%
D19*
%TO.C,C10*%
X134874000Y-87884000D03*
X135834000Y-87884000D03*
%TD*%
D10*
%TO.C,R18*%
X168783000Y-67945000D03*
X167133000Y-67945000D03*
%TD*%
D20*
%TO.C,D1*%
X126238000Y-107950000D03*
X126238000Y-111250000D03*
%TD*%
D21*
%TO.C,Q7*%
X115159000Y-66192400D03*
X115159000Y-64292400D03*
X113284000Y-65242400D03*
%TD*%
D11*
%TO.C,R23*%
X156718000Y-61214000D03*
X156718000Y-62864000D03*
%TD*%
D22*
%TO.C,C2*%
X135260000Y-103886000D03*
X137160000Y-103886000D03*
%TD*%
D19*
%TO.C,C31*%
X170053000Y-94488000D03*
X171013000Y-94488000D03*
%TD*%
D11*
%TO.C,R2*%
X122504200Y-79679800D03*
X122504200Y-81329800D03*
%TD*%
D23*
%TO.C,Q5*%
X108798400Y-87888600D03*
X106898400Y-87888600D03*
X107848400Y-89763600D03*
%TD*%
D19*
%TO.C,C27*%
X156514800Y-69977000D03*
X157474800Y-69977000D03*
%TD*%
D23*
%TO.C,Q6*%
X118323400Y-87888600D03*
X116423400Y-87888600D03*
X117373400Y-89763600D03*
%TD*%
D24*
%TO.C,D3*%
X121266200Y-76074000D03*
X125266200Y-76074000D03*
%TD*%
D19*
%TO.C,C30*%
X170053000Y-101346000D03*
X171013000Y-101346000D03*
%TD*%
D11*
%TO.C,R20*%
X164084000Y-61214000D03*
X164084000Y-62864000D03*
%TD*%
D25*
%TO.C,R1*%
X125413000Y-112776000D03*
X127063000Y-112776000D03*
%TD*%
D11*
%TO.C,R4*%
X115392200Y-79680800D03*
X115392200Y-81330800D03*
%TD*%
D24*
%TO.C,D5*%
X106788200Y-76074000D03*
X110788200Y-76074000D03*
%TD*%
D11*
%TO.C,R22*%
X154686000Y-61214000D03*
X154686000Y-62864000D03*
%TD*%
D10*
%TO.C,R17*%
X168656000Y-71247000D03*
X167006000Y-71247000D03*
%TD*%
%TO.C,R16*%
X168656000Y-72771000D03*
X167006000Y-72771000D03*
%TD*%
D26*
%TO.C,D13*%
X165422000Y-96266000D03*
X163322000Y-96266000D03*
%TD*%
D27*
%TO.C,R3*%
X121031000Y-81329800D03*
X121031000Y-79679800D03*
%TD*%
D28*
%TO.C,C26*%
X159216411Y-70020822D03*
X158537589Y-69342000D03*
%TD*%
D29*
%TO.C,C9*%
X152146000Y-70358000D03*
X152146000Y-68458000D03*
%TD*%
D30*
%TO.C,D2*%
X129540000Y-108744000D03*
X129540000Y-112744000D03*
%TD*%
D31*
%TO.C,C1*%
X135128000Y-107249000D03*
X135128000Y-112649000D03*
%TD*%
D32*
%TO.C,C3*%
X135991000Y-98679000D03*
X137541000Y-98679000D03*
%TD*%
D33*
%TO.C,D18*%
X141402000Y-61214000D03*
X139827000Y-61214000D03*
%TD*%
D34*
%TO.C,FB2*%
X162900992Y-77383008D03*
X161787300Y-78496700D03*
%TD*%
D25*
%TO.C,R27*%
X163322000Y-98044000D03*
X164972000Y-98044000D03*
%TD*%
D11*
%TO.C,R9*%
X112420400Y-87858600D03*
X112420400Y-89508600D03*
%TD*%
D35*
%TO.C,U1*%
X167993000Y-85344000D03*
X170293000Y-85344000D03*
D36*
X170293000Y-79044000D03*
D35*
X172593000Y-85344000D03*
%TD*%
D37*
%TO.C,D9*%
X152273000Y-103192000D03*
X152273000Y-101092000D03*
%TD*%
D38*
%TO.C,C18*%
X144018000Y-91694000D03*
X144018000Y-92654000D03*
%TD*%
D28*
%TO.C,C24*%
X161968822Y-72773233D03*
X161290000Y-72094411D03*
%TD*%
D32*
%TO.C,C15*%
X144767000Y-81534000D03*
X146317000Y-81534000D03*
%TD*%
D39*
%TO.C,D17*%
X141478000Y-72085000D03*
X141478000Y-73660000D03*
%TD*%
D10*
%TO.C,R29*%
X136969000Y-90805000D03*
X135319000Y-90805000D03*
%TD*%
D28*
%TO.C,C25*%
X160571822Y-71376233D03*
X159893000Y-70697411D03*
%TD*%
D29*
%TO.C,C8*%
X164084000Y-83180000D03*
X164084000Y-81280000D03*
%TD*%
D38*
%TO.C,C29*%
X145288000Y-110131000D03*
X145288000Y-111091000D03*
%TD*%
D39*
%TO.C,D7*%
X144729200Y-72085000D03*
X144729200Y-73660000D03*
%TD*%
D10*
%TO.C,R13*%
X115492800Y-69662000D03*
X113842800Y-69662000D03*
%TD*%
D11*
%TO.C,R11*%
X121945400Y-87858600D03*
X121945400Y-89508600D03*
%TD*%
D27*
%TO.C,R8*%
X110642400Y-89508600D03*
X110642400Y-87858600D03*
%TD*%
D11*
%TO.C,R14*%
X130606800Y-84354400D03*
X130606800Y-86004400D03*
%TD*%
D40*
%TO.C,L1*%
X139192000Y-99949000D03*
X142892000Y-99949000D03*
%TD*%
D38*
%TO.C,C11*%
X143481500Y-78923000D03*
X143481500Y-79883000D03*
%TD*%
D27*
%TO.C,R34*%
X143103600Y-70649500D03*
X143103600Y-68999500D03*
%TD*%
D41*
%TO.C,SW1*%
X131521200Y-88696800D03*
X131521200Y-93056800D03*
%TD*%
D42*
%TO.C,FB1*%
X144754500Y-80010000D03*
X146329500Y-80010000D03*
%TD*%
D43*
%TO.C,C28*%
X161544000Y-104394000D03*
X161544000Y-103434000D03*
%TD*%
D27*
%TO.C,R5*%
X113919000Y-81330800D03*
X113919000Y-79680800D03*
%TD*%
D13*
%TO.C,D10*%
X146431000Y-101092000D03*
X146431000Y-103192000D03*
%TD*%
D27*
%TO.C,R35*%
X141579600Y-70649500D03*
X141579600Y-68999500D03*
%TD*%
D44*
%TO.C,D6*%
X110490000Y-69088000D03*
X110490000Y-65088000D03*
%TD*%
D15*
%TO.C,C16*%
X146317000Y-78486000D03*
X144767000Y-78486000D03*
%TD*%
D24*
%TO.C,D4*%
X114033800Y-76074000D03*
X118033800Y-76074000D03*
%TD*%
D45*
%TO.C,C20*%
X161798000Y-76327000D03*
X160701984Y-77423016D03*
%TD*%
D27*
%TO.C,R15*%
X144587600Y-70649500D03*
X144587600Y-68999500D03*
%TD*%
D46*
%TO.C,U6*%
X156469000Y-108137000D03*
X157739000Y-108137000D03*
X158999000Y-108137000D03*
X160269000Y-108137000D03*
X160269000Y-102937000D03*
X158999000Y-102937000D03*
X157739000Y-102937000D03*
X156469000Y-102937000D03*
%TD*%
D37*
%TO.C,D11*%
X149987000Y-103192000D03*
X149987000Y-101092000D03*
%TD*%
D27*
%TO.C,R10*%
X120167400Y-89508600D03*
X120167400Y-87858600D03*
%TD*%
D25*
%TO.C,R32*%
X139827000Y-64262000D03*
X141477000Y-64262000D03*
%TD*%
D14*
%TO.C,Q2*%
X124000600Y-80998300D03*
X125900600Y-80998300D03*
X124950600Y-79123300D03*
%TD*%
D43*
%TO.C,C13*%
X132051500Y-85389600D03*
X132051500Y-84429600D03*
%TD*%
D16*
%TO.C,C7*%
X165862000Y-83185000D03*
X165862000Y-81635000D03*
%TD*%
D10*
%TO.C,R19*%
X168783000Y-65913000D03*
X167133000Y-65913000D03*
%TD*%
D47*
%TO.C,U2*%
X134874000Y-100208000D03*
X134874000Y-101158000D03*
X134874000Y-102108000D03*
X137149000Y-102108000D03*
X137149000Y-101158000D03*
X137149000Y-100208000D03*
%TD*%
D48*
%TO.C,R30*%
X152602363Y-73556258D03*
X151435637Y-74722984D03*
%TD*%
D11*
%TO.C,R6*%
X108153200Y-79680800D03*
X108153200Y-81330800D03*
%TD*%
D19*
%TO.C,C12*%
X134549000Y-76327000D03*
X135509000Y-76327000D03*
%TD*%
D49*
%TO.C,D12*%
X163322000Y-99822000D03*
X165422000Y-99822000D03*
%TD*%
D28*
%TO.C,C19*%
X161968822Y-74465822D03*
X161290000Y-73787000D03*
%TD*%
D39*
%TO.C,D16*%
X143103600Y-72085000D03*
X143103600Y-73660000D03*
%TD*%
D50*
%TO.C,C23*%
X154766016Y-81614016D03*
X153670000Y-80518000D03*
%TD*%
D27*
%TO.C,R7*%
X106680000Y-81330800D03*
X106680000Y-79680800D03*
%TD*%
D51*
%TO.C,C4*%
X140650000Y-103886000D03*
X138750000Y-103886000D03*
%TD*%
D52*
%TO.C,U5*%
X160616219Y-75436410D03*
X160156600Y-74976791D03*
X159696981Y-74517172D03*
X159237361Y-74057552D03*
X158770671Y-73590862D03*
X158311051Y-73131242D03*
X157851432Y-72671623D03*
X157391812Y-72212003D03*
X156932193Y-71752384D03*
X156472574Y-71292765D03*
X152413781Y-75351558D03*
X152873400Y-75811177D03*
X153333019Y-76270796D03*
X153792639Y-76730416D03*
X154252258Y-77190035D03*
X154711878Y-77649655D03*
X155178568Y-78116345D03*
X155638188Y-78575965D03*
X156097807Y-79035584D03*
X156557426Y-79495203D03*
%TD*%
D53*
%TO.C,C22*%
X155150178Y-80093178D03*
X155829000Y-80772000D03*
%TD*%
D10*
%TO.C,R24*%
X159004000Y-101092000D03*
X157354000Y-101092000D03*
%TD*%
D25*
%TO.C,R12*%
X113842800Y-67934800D03*
X115492800Y-67934800D03*
%TD*%
%TO.C,R28*%
X163322000Y-91186000D03*
X164972000Y-91186000D03*
%TD*%
D54*
%TO.C,Q1*%
X118677000Y-112270000D03*
X118677000Y-109220000D03*
X115327000Y-112270000D03*
X115327000Y-109220000D03*
D55*
X123302000Y-113025000D03*
X123302000Y-110745000D03*
X123302000Y-108465000D03*
%TD*%
D56*
%TO.C,U4*%
X145669000Y-87884000D03*
X145669000Y-89154000D03*
X145669000Y-90424000D03*
X145669000Y-91694000D03*
X145669000Y-92964000D03*
X145669000Y-94234000D03*
X145669000Y-95504000D03*
X150579000Y-95504000D03*
X150579000Y-94234000D03*
X150579000Y-92964000D03*
X150579000Y-91694000D03*
X150579000Y-90424000D03*
X150579000Y-89154000D03*
X150579000Y-87884000D03*
%TD*%
D26*
%TO.C,D15*%
X165422000Y-89408000D03*
X163322000Y-89408000D03*
%TD*%
D51*
%TO.C,C5*%
X140650000Y-105898000D03*
X138750000Y-105898000D03*
%TD*%
D57*
%TO.C,U3*%
X135045000Y-86331500D03*
X135545000Y-86331500D03*
X136045000Y-86331500D03*
X136545000Y-86331500D03*
X137045000Y-86331500D03*
X137545000Y-86331500D03*
X138045000Y-86331500D03*
X138545000Y-86331500D03*
X139045000Y-86331500D03*
X139545000Y-86331500D03*
X140045000Y-86331500D03*
X140545000Y-86331500D03*
D58*
X141957500Y-84919000D03*
X141957500Y-84419000D03*
X141957500Y-83919000D03*
X141957500Y-83419000D03*
X141957500Y-82919000D03*
X141957500Y-82419000D03*
X141957500Y-81919000D03*
X141957500Y-81419000D03*
X141957500Y-80919000D03*
X141957500Y-80419000D03*
X141957500Y-79919000D03*
X141957500Y-79419000D03*
D57*
X140545000Y-78006500D03*
X140045000Y-78006500D03*
X139545000Y-78006500D03*
X139045000Y-78006500D03*
X138545000Y-78006500D03*
X138045000Y-78006500D03*
X137545000Y-78006500D03*
X137045000Y-78006500D03*
X136545000Y-78006500D03*
X136045000Y-78006500D03*
X135545000Y-78006500D03*
X135045000Y-78006500D03*
D58*
X133632500Y-79419000D03*
X133632500Y-79919000D03*
X133632500Y-80419000D03*
X133632500Y-80919000D03*
X133632500Y-81419000D03*
X133632500Y-81919000D03*
X133632500Y-82419000D03*
X133632500Y-82919000D03*
X133632500Y-83419000D03*
X133632500Y-83919000D03*
X133632500Y-84419000D03*
X133632500Y-84919000D03*
%TD*%
D11*
%TO.C,R21*%
X162052000Y-61214000D03*
X162052000Y-62864000D03*
%TD*%
D50*
%TO.C,C21*%
X160782000Y-79535032D03*
X159685984Y-78439016D03*
%TD*%
D49*
%TO.C,D14*%
X163322000Y-92964000D03*
X165422000Y-92964000D03*
%TD*%
D38*
%TO.C,C14*%
X143481500Y-80828000D03*
X143481500Y-81788000D03*
%TD*%
M02*
