ISO-10303-21;
HEADER;
/* Generated by software containing ST-Developer
 * from STEP Tools, Inc. (www.steptools.com) 
 */

FILE_DESCRIPTION(
/* description */ (''),
/* implementation_level */ '2;1');

FILE_NAME(
/* name */ 'Nozzle_JLC.step',
/* time_stamp */ '2026-09-11T09:38:10+02:00',
/* author */ ('Simon'),
/* organization */ (''),
/* preprocessor_version */ 'ST-DEVELOPER v20',
/* originating_system */ 'Autodesk Inventor 2025',
/* authorisation */ '');

FILE_SCHEMA (('AUTOMOTIVE_DESIGN { 1 0 10303 214 3 1 1 }'));
ENDSEC;

DATA;
#10=MECHANICAL_DESIGN_GEOMETRIC_PRESENTATION_REPRESENTATION('',(#13),#159);
#11=SHAPE_REPRESENTATION_RELATIONSHIP('SRR','None',#166,#12);
#12=ADVANCED_BREP_SHAPE_REPRESENTATION('',(#14),#158);
#13=STYLED_ITEM('',(#175),#14);
#14=MANIFOLD_SOLID_BREP('Solid2',#79);
#15=CONICAL_SURFACE('',#107,2.55,0.261799387799149);
#16=CONICAL_SURFACE('',#109,1.05,0.26179938779915);
#17=FACE_BOUND('',#28,.T.);
#18=FACE_BOUND('',#32,.T.);
#19=PLANE('',#105);
#20=PLANE('',#111);
#21=FACE_OUTER_BOUND('',#26,.T.);
#22=FACE_OUTER_BOUND('',#27,.T.);
#23=FACE_OUTER_BOUND('',#29,.T.);
#24=FACE_OUTER_BOUND('',#30,.T.);
#25=FACE_OUTER_BOUND('',#31,.T.);
#26=EDGE_LOOP('',(#57,#58,#59,#60));
#27=EDGE_LOOP('',(#61));
#28=EDGE_LOOP('',(#62));
#29=EDGE_LOOP('',(#63,#64,#65,#66));
#30=EDGE_LOOP('',(#67,#68,#69,#70));
#31=EDGE_LOOP('',(#71));
#32=EDGE_LOOP('',(#72));
#33=LINE('',#142,#36);
#34=LINE('',#149,#37);
#35=LINE('',#153,#38);
#36=VECTOR('',#118,10.);
#37=VECTOR('',#127,2.55);
#38=VECTOR('',#132,1.05);
#39=CIRCLE('',#103,10.);
#40=CIRCLE('',#104,10.);
#41=CIRCLE('',#106,5.);
#42=CIRCLE('',#108,0.100000000000001);
#43=CIRCLE('',#110,2.);
#44=VERTEX_POINT('',#139);
#45=VERTEX_POINT('',#141);
#46=VERTEX_POINT('',#145);
#47=VERTEX_POINT('',#148);
#48=VERTEX_POINT('',#152);
#49=EDGE_CURVE('',#44,#44,#39,.T.);
#50=EDGE_CURVE('',#44,#45,#33,.T.);
#51=EDGE_CURVE('',#45,#45,#40,.T.);
#52=EDGE_CURVE('',#46,#46,#41,.T.);
#53=EDGE_CURVE('',#46,#47,#34,.T.);
#54=EDGE_CURVE('',#47,#47,#42,.T.);
#55=EDGE_CURVE('',#47,#48,#35,.T.);
#56=EDGE_CURVE('',#48,#48,#43,.T.);
#57=ORIENTED_EDGE('',*,*,#49,.F.);
#58=ORIENTED_EDGE('',*,*,#50,.T.);
#59=ORIENTED_EDGE('',*,*,#51,.T.);
#60=ORIENTED_EDGE('',*,*,#50,.F.);
#61=ORIENTED_EDGE('',*,*,#49,.T.);
#62=ORIENTED_EDGE('',*,*,#52,.F.);
#63=ORIENTED_EDGE('',*,*,#52,.T.);
#64=ORIENTED_EDGE('',*,*,#53,.T.);
#65=ORIENTED_EDGE('',*,*,#54,.F.);
#66=ORIENTED_EDGE('',*,*,#53,.F.);
#67=ORIENTED_EDGE('',*,*,#54,.T.);
#68=ORIENTED_EDGE('',*,*,#55,.T.);
#69=ORIENTED_EDGE('',*,*,#56,.F.);
#70=ORIENTED_EDGE('',*,*,#55,.F.);
#71=ORIENTED_EDGE('',*,*,#51,.F.);
#72=ORIENTED_EDGE('',*,*,#56,.T.);
#73=CYLINDRICAL_SURFACE('',#102,10.);
#74=ADVANCED_FACE('',(#21),#73,.T.);
#75=ADVANCED_FACE('',(#22,#17),#19,.T.);
#76=ADVANCED_FACE('',(#23),#15,.F.);
#77=ADVANCED_FACE('',(#24),#16,.F.);
#78=ADVANCED_FACE('',(#25,#18),#20,.T.);
#79=CLOSED_SHELL('',(#74,#75,#76,#77,#78));
#80=DERIVED_UNIT_ELEMENT(#83,1.);
#81=DERIVED_UNIT_ELEMENT(#161,-3.);
#82=DIMENSIONAL_EXPONENTS(0.,1.,0.,0.,0.,0.,0.);
#83=(
CONVERSION_BASED_UNIT('gram',#85)
MASS_UNIT()
NAMED_UNIT(#82)
);
#84=(
MASS_UNIT()
NAMED_UNIT(*)
SI_UNIT(.KILO.,.GRAM.)
);
#85=MASS_MEASURE_WITH_UNIT(MASS_MEASURE(0.001),#84);
#86=DERIVED_UNIT((#80,#81));
#87=MEASURE_REPRESENTATION_ITEM('density measure',
POSITIVE_RATIO_MEASURE(1.),#86);
#88=PROPERTY_DEFINITION_REPRESENTATION(#93,#90);
#89=PROPERTY_DEFINITION_REPRESENTATION(#94,#91);
#90=REPRESENTATION('material name',(#92),#158);
#91=REPRESENTATION('density',(#87),#158);
#92=DESCRIPTIVE_REPRESENTATION_ITEM('Generic','Generic');
#93=PROPERTY_DEFINITION('material property','material name',#168);
#94=PROPERTY_DEFINITION('material property','density of part',#168);
#95=DATE_TIME_ROLE('creation_date');
#96=APPLIED_DATE_AND_TIME_ASSIGNMENT(#97,#95,(#168));
#97=DATE_AND_TIME(#98,#99);
#98=CALENDAR_DATE(2026,9,3);
#99=LOCAL_TIME(0,0,0.,#100);
#100=COORDINATED_UNIVERSAL_TIME_OFFSET(0,0,.BEHIND.);
#101=AXIS2_PLACEMENT_3D('',#137,#112,#113);
#102=AXIS2_PLACEMENT_3D('',#138,#114,#115);
#103=AXIS2_PLACEMENT_3D('',#140,#116,#117);
#104=AXIS2_PLACEMENT_3D('',#143,#119,#120);
#105=AXIS2_PLACEMENT_3D('',#144,#121,#122);
#106=AXIS2_PLACEMENT_3D('',#146,#123,#124);
#107=AXIS2_PLACEMENT_3D('',#147,#125,#126);
#108=AXIS2_PLACEMENT_3D('',#150,#128,#129);
#109=AXIS2_PLACEMENT_3D('',#151,#130,#131);
#110=AXIS2_PLACEMENT_3D('',#154,#133,#134);
#111=AXIS2_PLACEMENT_3D('',#155,#135,#136);
#112=DIRECTION('axis',(0.,0.,1.));
#113=DIRECTION('refdir',(1.,0.,0.));
#114=DIRECTION('center_axis',(1.,0.,0.));
#115=DIRECTION('ref_axis',(0.,1.,0.));
#116=DIRECTION('center_axis',(1.,0.,0.));
#117=DIRECTION('ref_axis',(0.,0.,-1.));
#118=DIRECTION('',(-1.,0.,0.));
#119=DIRECTION('center_axis',(1.,0.,0.));
#120=DIRECTION('ref_axis',(0.,0.,-1.));
#121=DIRECTION('center_axis',(1.,0.,0.));
#122=DIRECTION('ref_axis',(0.,0.,-1.));
#123=DIRECTION('center_axis',(1.,0.,0.));
#124=DIRECTION('ref_axis',(0.,0.,-1.));
#125=DIRECTION('center_axis',(1.,0.,0.));
#126=DIRECTION('ref_axis',(0.,1.,0.));
#127=DIRECTION('',(-0.965925826289068,0.258819045102521,3.16961915143176E-17));
#128=DIRECTION('center_axis',(1.,0.,0.));
#129=DIRECTION('ref_axis',(0.,0.,-1.));
#130=DIRECTION('center_axis',(-1.,0.,0.));
#131=DIRECTION('ref_axis',(0.,1.,0.));
#132=DIRECTION('',(-0.965925826289068,-0.258819045102521,-3.16961915143177E-17));
#133=DIRECTION('center_axis',(1.,0.,0.));
#134=DIRECTION('ref_axis',(0.,0.,-1.));
#135=DIRECTION('center_axis',(-1.,0.,0.));
#136=DIRECTION('ref_axis',(0.,0.,1.));
#137=CARTESIAN_POINT('',(0.,0.,0.));
#138=CARTESIAN_POINT('Origin',(19.6889727457342,0.,0.));
#139=CARTESIAN_POINT('',(32.3779454914684,-10.,-1.22464679914735E-15));
#140=CARTESIAN_POINT('Origin',(32.3779454914684,0.,0.));
#141=CARTESIAN_POINT('',(7.,-10.,-1.22464679914735E-15));
#142=CARTESIAN_POINT('',(19.6889727457342,-10.,-1.22464679914735E-15));
#143=CARTESIAN_POINT('Origin',(7.,0.,0.));
#144=CARTESIAN_POINT('Origin',(32.3779454914684,5.,0.));
#145=CARTESIAN_POINT('',(32.3779454914684,-5.,-6.12323399573677E-16));
#146=CARTESIAN_POINT('Origin',(32.3779454914684,0.,0.));
#147=CARTESIAN_POINT('Origin',(23.2344210129246,0.,0.));
#148=CARTESIAN_POINT('',(14.0908965343809,-0.1,-1.22464679914736E-17));
#149=CARTESIAN_POINT('',(23.2344210129246,-2.55,-3.12284933782575E-16));
#150=CARTESIAN_POINT('Origin',(14.0908965343809,0.,0.));
#151=CARTESIAN_POINT('Origin',(10.5454482671904,0.,0.));
#152=CARTESIAN_POINT('',(7.,-2.,-2.44929359829471E-16));
#153=CARTESIAN_POINT('',(10.5454482671904,-1.05,-1.28587913910472E-16));
#154=CARTESIAN_POINT('Origin',(7.,0.,0.));
#155=CARTESIAN_POINT('Origin',(7.,10.,0.));
#156=UNCERTAINTY_MEASURE_WITH_UNIT(LENGTH_MEASURE(0.01),#160,
'DISTANCE_ACCURACY_VALUE',
'Maximum model space distance between geometric entities at asserted c
onnectivities');
#157=UNCERTAINTY_MEASURE_WITH_UNIT(LENGTH_MEASURE(0.01),#160,
'DISTANCE_ACCURACY_VALUE',
'Maximum model space distance between geometric entities at asserted c
onnectivities');
#158=(
GEOMETRIC_REPRESENTATION_CONTEXT(3)
GLOBAL_UNCERTAINTY_ASSIGNED_CONTEXT((#156))
GLOBAL_UNIT_ASSIGNED_CONTEXT((#160,#162,#163))
REPRESENTATION_CONTEXT('','3D')
);
#159=(
GEOMETRIC_REPRESENTATION_CONTEXT(3)
GLOBAL_UNCERTAINTY_ASSIGNED_CONTEXT((#157))
GLOBAL_UNIT_ASSIGNED_CONTEXT((#160,#162,#163))
REPRESENTATION_CONTEXT('','3D')
);
#160=(
LENGTH_UNIT()
NAMED_UNIT(*)
SI_UNIT(.MILLI.,.METRE.)
);
#161=(
LENGTH_UNIT()
NAMED_UNIT(*)
SI_UNIT(.CENTI.,.METRE.)
);
#162=(
NAMED_UNIT(*)
PLANE_ANGLE_UNIT()
SI_UNIT($,.RADIAN.)
);
#163=(
NAMED_UNIT(*)
SI_UNIT($,.STERADIAN.)
SOLID_ANGLE_UNIT()
);
#164=SHAPE_DEFINITION_REPRESENTATION(#165,#166);
#165=PRODUCT_DEFINITION_SHAPE('',$,#168);
#166=SHAPE_REPRESENTATION('',(#101),#158);
#167=PRODUCT_DEFINITION_CONTEXT('part definition',#172,'design');
#168=PRODUCT_DEFINITION('Part1','Nozzle_JLC',#169,#167);
#169=PRODUCT_DEFINITION_FORMATION('',$,#174);
#170=PRODUCT_RELATED_PRODUCT_CATEGORY('Nozzle_JLC','Nozzle_JLC',(#174));
#171=APPLICATION_PROTOCOL_DEFINITION('international standard',
'automotive_design',2009,#172);
#172=APPLICATION_CONTEXT(
'Core Data for Automotive Mechanical Design Process');
#173=PRODUCT_CONTEXT('part definition',#172,'mechanical');
#174=PRODUCT('Part1','Nozzle_JLC',$,(#173));
#175=PRESENTATION_STYLE_ASSIGNMENT((#176));
#176=SURFACE_STYLE_USAGE(.BOTH.,#179);
#177=SURFACE_STYLE_RENDERING_WITH_PROPERTIES($,#183,(#178));
#178=SURFACE_STYLE_TRANSPARENT(0.);
#179=SURFACE_SIDE_STYLE('',(#180,#177));
#180=SURFACE_STYLE_FILL_AREA(#181);
#181=FILL_AREA_STYLE('',(#182));
#182=FILL_AREA_STYLE_COLOUR('',#183);
#183=COLOUR_RGB('',0.749019607843137,0.749019607843137,0.749019607843137);
ENDSEC;
END-ISO-10303-21;
