M48
; DRILL file {KiCad 9.0.2} date 2026-04-14T11:50:31+0200
; FORMAT={-:-/ absolute / metric / decimal}
; #@! TF.CreationDate,2026-04-14T11:50:31+02:00
; #@! TF.GenerationSoftware,Kicad,Pcbnew,9.0.2
; #@! TF.FileFunction,MixedPlating,1,2
FMAT,2
METRIC
; #@! TA.AperFunction,Plated,PTH,ComponentDrill
T1C0.800
; #@! TA.AperFunction,Plated,PTH,ComponentDrill
T2C1.000
; #@! TA.AperFunction,Plated,PTH,ComponentDrill
T3C1.200
; #@! TA.AperFunction,Plated,PTH,ComponentDrill
T4C1.500
; #@! TA.AperFunction,Plated,PTH,ComponentDrill
T5C3.200
; #@! TA.AperFunction,NonPlated,NPTH,ComponentDrill
T6C3.500
; #@! TA.AperFunction,NonPlated,NPTH,ComponentDrill
T7C4.300
%
G90
G05
T1
X82.55Y-81.915
X90.17Y-81.915
X100.33Y-83.82
X100.33Y-86.36
X116.84Y-76.24
X116.84Y-78.74
X117.475Y-92.71
X117.475Y-100.33
X117.475Y-102.91
X117.475Y-105.41
X118.11Y-111.76
X118.11Y-114.26
X118.745Y-125.095
X120.65Y-86.36
X120.65Y-93.98
X120.65Y-96.52
X120.65Y-104.14
X122.555Y-76.835
X122.555Y-120.015
X123.83Y-92.71
X123.83Y-95.25
X123.83Y-97.79
X123.83Y-100.33
X126.365Y-111.125
X126.365Y-125.095
X130.175Y-76.835
X130.175Y-120.015
X131.45Y-92.71
X131.45Y-95.25
X131.45Y-97.79
X131.45Y-100.33
X133.985Y-111.125
X137.795Y-95.29
X137.795Y-97.79
X141.605Y-111.125
X143.51Y-69.85
X145.415Y-94.615
X147.915Y-94.615
X149.225Y-111.125
X151.13Y-69.85
X159.385Y-78.74
X167.005Y-78.74
X179.705Y-60.96
X179.705Y-64.135
X183.515Y-70.485
X183.515Y-73.66
X183.515Y-86.36
X183.515Y-89.535
X183.515Y-102.235
X183.515Y-105.41
X183.515Y-118.11
X183.515Y-121.285
X187.325Y-60.96
X187.325Y-64.135
X191.135Y-70.485
X191.135Y-73.66
X191.135Y-86.36
X191.135Y-89.535
X191.135Y-102.235
X191.135Y-105.41
X191.135Y-118.11
X191.135Y-121.285
X194.31Y-71.12
X194.31Y-73.66
X194.31Y-76.2
X194.31Y-86.995
X194.31Y-89.535
X194.31Y-92.075
X194.31Y-102.87
X194.31Y-105.41
X194.31Y-107.95
X194.31Y-118.745
X194.31Y-121.285
X194.31Y-123.825
T2
X85.09Y-140.97
X87.63Y-95.25
X87.63Y-140.97
X88.9Y-146.685
X90.17Y-95.25
X90.17Y-140.97
X91.44Y-146.685
X92.71Y-140.97
X93.98Y-146.685
X96.52Y-146.685
X100.33Y-90.805
X102.87Y-90.805
X104.14Y-40.005
X104.14Y-50.165
X109.855Y-71.12
X109.855Y-73.66
X109.855Y-76.2
X109.855Y-78.74
X109.855Y-81.28
X109.855Y-83.82
X109.855Y-86.36
X109.855Y-88.9
X109.855Y-91.44
X109.855Y-93.98
X109.855Y-96.52
X109.855Y-99.06
X109.855Y-101.6
X109.855Y-104.14
X109.855Y-106.68
X109.855Y-109.22
X109.855Y-111.76
X109.855Y-114.3
X109.855Y-116.84
X112.395Y-71.12
X112.395Y-73.66
X112.395Y-76.2
X112.395Y-78.74
X112.395Y-81.28
X112.395Y-83.82
X112.395Y-86.36
X112.395Y-88.9
X112.395Y-91.44
X112.395Y-93.98
X112.395Y-96.52
X112.395Y-99.06
X112.395Y-101.6
X112.395Y-104.14
X112.395Y-106.68
X112.395Y-109.22
X112.395Y-111.76
X112.395Y-114.3
X112.395Y-116.84
X122.555Y-146.685
X125.095Y-146.685
X141.605Y-95.25
X141.605Y-97.79
X150.495Y-146.05
X160.655Y-146.05
X167.64Y-124.46
X170.18Y-124.46
X170.815Y-71.12
X170.815Y-73.66
X170.815Y-76.2
X170.815Y-78.74
X170.815Y-81.28
X170.815Y-83.82
X170.815Y-86.36
X170.815Y-88.9
X170.815Y-91.44
X170.815Y-93.98
X170.815Y-96.52
X170.815Y-99.06
X170.815Y-101.6
X170.815Y-104.14
X170.815Y-106.68
X170.815Y-109.22
X170.815Y-111.76
X170.815Y-114.3
X170.815Y-116.84
X170.815Y-146.085
X173.355Y-71.12
X173.355Y-73.66
X173.355Y-76.2
X173.355Y-78.74
X173.355Y-81.28
X173.355Y-83.82
X173.355Y-86.36
X173.355Y-88.9
X173.355Y-91.44
X173.355Y-93.98
X173.355Y-96.52
X173.355Y-99.06
X173.355Y-101.6
X173.355Y-104.14
X173.355Y-106.68
X173.355Y-109.22
X173.355Y-111.76
X173.355Y-114.3
X173.355Y-116.84
X178.435Y-81.28
X178.435Y-83.82
X178.435Y-86.36
X178.435Y-88.9
X178.435Y-91.44
X180.34Y-146.05
X199.39Y-57.15
X199.39Y-59.69
X200.66Y-72.39
X200.66Y-74.93
X200.66Y-88.265
X200.66Y-90.805
X200.66Y-104.14
X200.66Y-106.68
X200.66Y-120.015
X200.66Y-122.555
T3
X140.335Y-91.44
X142.875Y-91.44
X145.415Y-91.44
X191.135Y-63.5
X192.405Y-78.74
X192.405Y-94.615
X192.405Y-110.49
X192.405Y-126.365
X193.04Y-53.975
X193.04Y-56.515
X193.04Y-59.055
X201.295Y-63.5
X202.565Y-78.74
X202.565Y-94.615
X202.565Y-110.49
X202.565Y-126.365
T4
X78.105Y-50.8
X78.105Y-90.297
X93.345Y-43.085
X95.25Y-50.8
X95.25Y-90.297
X98.425Y-43.085
X210.185Y-57.785
X210.185Y-62.865
X210.185Y-73.66
X210.185Y-78.74
X210.185Y-89.535
X210.185Y-94.615
X210.185Y-105.41
X210.185Y-110.49
X210.185Y-121.285
X210.185Y-126.365
T5
X78.676Y-85.534
X94.678Y-55.562
T6
X142.875Y-74.78
T7
X82.55Y-45.085
X82.55Y-146.085
X208.55Y-45.085
X208.55Y-146.085
M30
